<svg width="29" height="28" viewBox="0 0 29 28" fill="none" xmlns="http://www.w3.org/2000/svg">
    <g clip-path="url(#clip0_477_1718)">
    <path d="M18.1717 3.1219C18.0806 3.04649 17.9753 2.99019 17.8619 2.95634C17.7486 2.92248 17.6296 2.91177 17.5121 2.92483C17.3945 2.93789 17.2808 2.97446 17.1777 3.03237C17.0745 3.09027 16.9841 3.16833 16.9117 3.2619L13.6917 7.33589L3.15674 20.6149C3.34574 20.7689 3.53474 20.9299 3.70274 21.1049C3.99431 21.3879 4.2591 21.6972 4.49374 22.0289L4.56374 22.1199C4.77997 22.4361 4.96738 22.7712 5.12374 23.1209C5.32674 23.5549 5.47374 24.0169 5.57874 24.4859C5.66917 24.8721 5.88813 25.2162 6.19973 25.4616C6.51133 25.7071 6.89708 25.8394 7.29374 25.8369H27.8527C27.9713 25.8369 28.0886 25.8133 28.1979 25.7673C28.3071 25.7213 28.4061 25.6539 28.4889 25.5691C28.5717 25.4843 28.6368 25.3838 28.6802 25.2736C28.7236 25.1633 28.7445 25.0454 28.7417 24.9269C28.6115 20.7536 27.6029 16.6546 25.7816 12.8974C23.9603 9.14024 21.3673 5.80929 18.1717 3.1219Z" fill="#9A66FF"/>
    <path d="M20.2228 15.3859C18.7113 12.3444 16.5631 9.66375 13.924 7.52591C11.2849 5.38807 8.21675 3.84309 4.92777 2.99588C4.81097 2.96799 4.68978 2.96368 4.57129 2.9832C4.4528 3.00272 4.33939 3.04567 4.23771 3.10955C4.13602 3.17343 4.0481 3.25695 3.97908 3.35523C3.91007 3.4535 3.86135 3.56455 3.83577 3.68188L0.832772 17.7799C0.739898 18.1773 0.786608 18.5947 0.965059 18.9618C1.14351 19.3289 1.44283 19.6234 1.81277 19.7959C2.5191 20.1175 3.16354 20.5606 3.71677 21.1049L3.83577 21.2239C4.08077 21.4759 4.30477 21.7419 4.50777 22.0289L4.57777 22.1199C4.794 22.4361 4.98142 22.7711 5.13777 23.1209L19.7958 16.6039C19.9053 16.5536 20.0036 16.4819 20.085 16.393C20.1663 16.3041 20.2291 16.1999 20.2695 16.0864C20.31 15.9729 20.3273 15.8524 20.3205 15.7321C20.3136 15.6118 20.2828 15.4941 20.2298 15.3859H20.2228Z" fill="url(#paint0_linear_477_1718)"/>
    <path d="M13.6846 7.33594L14.0136 7.60194C16.6117 9.7271 18.7281 12.3804 20.2226 15.3859C20.2756 15.4941 20.3064 15.6119 20.3133 15.7322C20.3201 15.8525 20.3028 15.9729 20.2623 16.0864C20.2219 16.1999 20.1591 16.3042 20.0778 16.3931C19.9964 16.482 19.8981 16.5536 19.7886 16.6039L5.13757 23.1209C4.98122 22.7712 4.7938 22.4362 4.57757 22.1199L4.50757 22.0289L4.34657 21.8189C4.18557 21.6089 4.01757 21.4129 3.82857 21.2239C3.62042 21.0088 3.39827 20.8077 3.16357 20.6219L13.6846 7.33594Z" fill="url(#paint1_linear_477_1718)"/>
    </g>
    <defs>
    <linearGradient id="paint0_linear_477_1718" x1="10.5488" y1="2.96788" x2="10.5488" y2="23.1209" gradientUnits="userSpaceOnUse">
    <stop offset="0.26" stop-color="#FF5091"/>
    <stop offset="0.91" stop-color="#E03071"/>
    </linearGradient>
    <linearGradient id="paint1_linear_477_1718" x1="11.7386" y1="7.33594" x2="11.7386" y2="23.1209" gradientUnits="userSpaceOnUse">
    <stop stop-color="#6E00F5"/>
    <stop offset="1" stop-color="#9860FE"/>
    </linearGradient>
    <clipPath id="clip0_477_1718">
    <rect width="28" height="28" fill="white" transform="translate(0.762695)"/>
    </clipPath>
    </defs>
    </svg>
    