<svg width="29" height="28" viewBox="0 0 29 28" fill="none" xmlns="http://www.w3.org/2000/svg">
    <path d="M24.9897 7.89592C24.7904 7.56808 24.491 7.3129 24.1357 7.16792L6.74075 0.139918C6.46648 0.028121 6.16885 -0.0142298 5.87428 0.0166249C5.57972 0.0474796 5.29732 0.150585 5.05217 0.316789C4.80702 0.482992 4.6067 0.707152 4.46899 0.969369C4.33127 1.23159 4.26043 1.52375 4.26275 1.81992V10.4999C4.26275 11.2349 4.71075 11.8999 5.38975 12.1799L9.89775 13.9999L24.9897 20.1039C25.1718 19.8239 25.2698 19.4879 25.2628 19.1519V8.84792C25.2628 8.51192 25.1718 8.17592 24.9897 7.88892V7.89592Z" fill="url(#paint0_linear_477_275)"/>
    <path d="M25.0037 7.896L9.90471 14L5.38971 15.82C5.05562 15.9555 4.76975 16.188 4.5689 16.4874C4.36805 16.7868 4.26141 17.1395 4.26271 17.5V26.194C4.26325 26.489 4.33603 26.7793 4.4747 27.0397C4.61336 27.3 4.81368 27.5224 5.05815 27.6875C5.30262 27.8525 5.5838 27.9552 5.8771 27.9865C6.17041 28.0178 6.46692 27.9768 6.74071 27.867L24.1427 20.832C24.4927 20.685 24.7937 20.433 24.9897 20.104C25.1717 19.817 25.2697 19.488 25.2627 19.152V8.848C25.2627 8.512 25.1787 8.183 25.0037 7.896Z" fill="#9966FF"/>
    <path d="M24.9968 7.896L25.0668 8.015C25.1928 8.274 25.2628 8.554 25.2628 8.848V8.827V19.152C25.2628 19.488 25.1718 19.817 24.9898 20.104L9.90479 14L24.9968 7.896Z" fill="url(#paint1_linear_477_275)"/>
    <defs>
    <linearGradient id="paint0_linear_477_275" x1="14.7628" y1="2.89092" x2="14.7628" y2="14.7909" gradientUnits="userSpaceOnUse">
    <stop stop-color="#11EFE3"/>
    <stop offset="1" stop-color="#21CFE0"/>
    </linearGradient>
    <linearGradient id="paint1_linear_477_275" x1="25.2628" y1="7.896" x2="25.2628" y2="20.104" gradientUnits="userSpaceOnUse">
    <stop stop-color="#0048E5"/>
    <stop offset="1" stop-color="#9B66FF"/>
    </linearGradient>
    </defs>
    </svg>
    