<svg width="29" height="28" viewBox="0 0 29 28" fill="none" xmlns="http://www.w3.org/2000/svg">
    <g clip-path="url(#clip0_477_2006)">
    <path d="M22.8407 2.80005H9.05067C8.46267 2.80005 7.90967 3.10105 7.58767 3.59805C7.42942 3.84453 7.33504 4.12653 7.31304 4.41861C7.29104 4.71069 7.34212 5.00365 7.46167 5.27105L11.0317 13.293C11.2417 13.741 11.2417 14.259 11.0317 14.707L6.36267 25.2H22.8407C23.5197 25.2 24.1427 24.794 24.4227 24.164L28.6087 14.714C28.8187 14.259 28.8187 13.741 28.6087 13.286L24.4227 3.83605C24.2873 3.52892 24.0659 3.26761 23.7851 3.08374C23.5043 2.89987 23.1763 2.80133 22.8407 2.80005Z" fill="#9966FF"/>
    <path d="M5.82374 25.2C5.58652 25.1998 5.35227 25.1472 5.13774 25.046H5.16574C4.78233 24.8751 4.47566 24.5684 4.30474 24.185L0.916738 16.471C0.798612 16.2048 0.747685 15.9137 0.768435 15.6232C0.789184 15.3327 0.880975 15.0517 1.03574 14.805C1.18955 14.5593 1.40313 14.3566 1.65652 14.2158C1.90992 14.075 2.19486 14.0008 2.48474 14H16.1347C16.8137 14 17.4227 14.399 17.6957 15.022L21.0557 22.617L21.5317 23.688C21.6017 23.842 21.6927 23.982 21.7977 24.108C22.1407 24.556 22.6377 25.018 23.1837 25.165C23.1067 25.186 22.9737 25.2 22.7987 25.2H5.81674H5.82374Z" fill="url(#paint0_linear_477_2006)"/>
    <path d="M16.1417 13.9999C16.7717 13.9999 17.3457 14.3499 17.6397 14.9099L17.6957 15.0219L21.0557 22.6169L21.5317 23.6879C21.8846 24.333 22.4552 24.8316 23.1417 25.0949L23.2677 25.1439C23.1277 25.1789 22.9877 25.1999 22.8407 25.1999H6.36267L11.0317 14.6999C11.1367 14.4759 11.1857 14.2379 11.1857 13.9929H16.1417V13.9999Z" fill="url(#paint1_linear_477_2006)"/>
    </g>
    <defs>
    <linearGradient id="paint0_linear_477_2006" x1="11.9697" y1="24.913" x2="11.9697" y2="14.812" gradientUnits="userSpaceOnUse">
    <stop stop-color="#21CFE0"/>
    <stop offset="0.17" stop-color="#20D1E0"/>
    <stop offset="0.38" stop-color="#18E2E2"/>
    <stop offset="0.61" stop-color="#13ECE3"/>
    <stop offset="1" stop-color="#11EFE3"/>
    </linearGradient>
    <linearGradient id="paint1_linear_477_2006" x1="15.5117" y1="30.0999" x2="15.5117" y2="10.1499" gradientUnits="userSpaceOnUse">
    <stop stop-color="#0048E5"/>
    <stop offset="1" stop-color="#9B66FF"/>
    </linearGradient>
    <clipPath id="clip0_477_2006">
    <rect width="28" height="28" fill="white" transform="translate(0.762695)"/>
    </clipPath>
    </defs>
    </svg>
    