<svg width="29" height="28" viewBox="0 0 29 28" fill="none" xmlns="http://www.w3.org/2000/svg">
    <path fill-rule="evenodd" clip-rule="evenodd" d="M2.16272 7.0139C2.16272 6.3489 2.51272 5.7329 3.09372 5.4039L12.0187 0.251902C12.3018 0.0884775 12.6229 0.00244141 12.9497 0.00244141C13.2766 0.00244141 13.5977 0.0884775 13.8807 0.251902L22.8057 5.4039C23.0884 5.56711 23.3232 5.80177 23.4866 6.08434C23.65 6.36692 23.7363 6.68748 23.7367 7.0139V11.2139L20.2367 9.1909C19.9537 9.02748 19.6326 8.94144 19.3057 8.94144C18.9789 8.94144 18.6578 9.02748 18.3747 9.1909L11.7177 13.0269C11.4337 13.1892 11.1975 13.4235 11.0328 13.7061C10.8682 13.9888 10.7809 14.3098 10.7797 14.6369V22.3019C10.7797 22.9319 11.0947 23.5059 11.6127 23.8489L3.09372 18.9349C2.81103 18.7717 2.57622 18.537 2.41281 18.2545C2.24941 17.9719 2.16317 17.6513 2.16272 17.3249V7.0139Z" fill="url(#paint0_linear_477_1818)"/>
    <path fill-rule="evenodd" clip-rule="evenodd" d="M11.6127 23.8489L12.0187 24.0869C12.5927 24.4229 13.3067 24.4229 13.8807 24.0869L22.8057 18.9349C23.0884 18.7717 23.3232 18.5371 23.4866 18.2545C23.65 17.9719 23.7362 17.6514 23.7367 17.3249V11.2209L26.8657 13.0269C27.1484 13.1902 27.3832 13.4248 27.5466 13.7074C27.71 13.99 27.7962 14.3105 27.7967 14.6369V22.3019C27.7967 22.9669 27.4467 23.5829 26.8657 23.9119L20.2297 27.7479C19.6557 28.0839 18.9487 28.0839 18.3747 27.7479L11.7177 23.9189L11.6127 23.8489Z" fill="#9966FF"/>
    <path fill-rule="evenodd" clip-rule="evenodd" d="M23.7367 11.2211L20.2367 9.19111C19.9536 9.02769 19.6325 8.94165 19.3057 8.94165C18.9788 8.94165 18.6577 9.02769 18.3747 9.19111L11.7177 13.0271C11.4337 13.1894 11.1975 13.4237 11.0328 13.7063C10.8681 13.989 10.7808 14.31 10.7797 14.6371V22.3021C10.7797 22.9321 11.0947 23.5061 11.6127 23.8491L12.0187 24.0871C12.5927 24.4231 13.3067 24.4231 13.8807 24.0871L22.8057 18.9351C23.0884 18.7719 23.3232 18.5372 23.4866 18.2547C23.65 17.9721 23.7362 17.6515 23.7367 17.3251V11.2211Z" fill="url(#paint1_linear_477_1818)"/>
    <defs>
    <linearGradient id="paint0_linear_477_1818" x1="12.9497" y1="1.5679" x2="12.6627" y2="22.5259" gradientUnits="userSpaceOnUse">
    <stop stop-color="#11EFE3"/>
    <stop offset="0.33" stop-color="#15E8E2"/>
    <stop offset="0.74" stop-color="#1FD3E0"/>
    <stop offset="1" stop-color="#21CFE0"/>
    </linearGradient>
    <linearGradient id="paint1_linear_477_1818" x1="16.1277" y1="28.5671" x2="22.1757" y2="6.69211" gradientUnits="userSpaceOnUse">
    <stop stop-color="#0048E5"/>
    <stop offset="0.64" stop-color="#625AF5"/>
    <stop offset="1" stop-color="#8A62FC"/>
    </linearGradient>
    </defs>
    </svg>
    