<svg width="378" height="295" viewBox="0 0 378 295" fill="none" xmlns="http://www.w3.org/2000/svg">
    <g clip-path="url(#clip0_366_1849)">
    <path d="M326.204 295L335.421 24.1488H140.316L131.097 295H326.204Z" fill="#E6F3FC"/>
    <path d="M99.5782 251.279C99.0373 255.885 102.359 259.617 106.999 259.617C111.639 259.617 115.842 255.882 116.382 251.279C116.923 246.672 113.602 242.94 108.962 242.94C104.322 242.94 100.119 246.675 99.5782 251.279Z" fill="white"/>
    <path d="M253.04 100.783C263.968 89.8543 263.968 72.136 253.04 61.2077C242.112 50.2794 224.393 50.2794 213.465 61.2077C202.537 72.136 202.537 89.8543 213.465 100.783C224.393 111.711 242.112 111.711 253.04 100.783Z" fill="#605EFD"/>
    <path d="M228.39 258.219C243.845 258.219 256.374 245.69 256.374 230.235C256.374 214.781 243.845 202.252 228.39 202.252C212.935 202.252 200.406 214.781 200.406 230.235C200.406 245.69 212.935 258.219 228.39 258.219Z" fill="#605EFD"/>
    <path d="M230.818 121.389L196.6 155.607L230.818 189.825L265.036 155.607L230.818 121.389Z" fill="#FFCC3D"/>
    <path d="M185.921 240.418C185.866 240.418 185.814 240.412 185.76 240.403C172.921 237.863 161.565 228.795 156.126 216.737C150.778 204.886 151.337 190.337 157.582 178.772C163.814 167.23 175.312 158.85 188.343 156.352C188.786 156.267 189.224 156.558 189.309 157.008C189.394 157.458 189.102 157.889 188.653 157.974C176.106 160.378 165.032 168.449 159.034 179.559C153.026 190.68 152.489 204.671 157.63 216.063C162.854 227.64 173.754 236.349 186.079 238.786C186.525 238.875 186.817 239.309 186.729 239.756C186.65 240.151 186.307 240.421 185.921 240.421V240.418Z" fill="#030047"/>
    <path d="M177.582 242.433L180.977 231.308C181.612 229.23 184.331 228.737 185.653 230.46L191.734 238.392C192.849 239.847 192.202 241.965 190.467 242.552L180.992 245.745C178.932 246.441 176.947 244.515 177.582 242.433Z" fill="#030047"/>
    <path d="M177.582 242.433L180.977 231.308C181.612 229.23 184.331 228.737 185.653 230.46L191.734 238.392C192.849 239.847 192.202 241.965 190.467 242.552L180.992 245.745C178.932 246.441 176.947 244.515 177.582 242.433Z" fill="#030047"/>
    <path d="M281.738 156.525C281.352 156.525 281.005 156.252 280.929 155.86C280.841 155.413 281.133 154.978 281.58 154.89C293.905 152.45 304.805 143.744 310.028 132.167C315.17 120.774 314.629 106.787 308.624 95.6623C302.626 84.5527 291.553 76.4849 279.006 74.0782C278.559 73.9931 278.265 73.5586 278.35 73.1119C278.435 72.6652 278.866 72.3705 279.316 72.4555C292.346 74.9534 303.845 83.3342 310.077 94.8753C316.322 106.444 316.881 120.99 311.533 132.841C306.093 144.896 294.737 153.966 281.899 156.507C281.844 156.516 281.789 156.522 281.738 156.522V156.525Z" fill="#030047"/>
    <path d="M290.076 158.543L286.682 147.418C286.047 145.339 283.327 144.847 282.005 146.573L275.925 154.504C274.81 155.96 275.457 158.078 277.192 158.664L286.667 161.858C288.727 162.551 290.711 160.624 290.076 158.546V158.543Z" fill="#030047"/>
    <path d="M186.823 95.3159C186.823 101.536 184.301 107.161 180.229 111.233C176.166 115.305 170.533 117.827 164.324 117.827H107.172C94.7436 117.827 84.6611 107.753 84.6611 95.3159C84.6611 89.0956 87.1833 83.4831 91.2552 79.4112C95.3271 75.3393 100.964 72.8171 107.172 72.8171H164.324C176.753 72.8171 186.823 82.8905 186.823 95.3159Z" fill="#030047"/>
    <path d="M110.037 108.182C117.48 108.182 123.514 102.148 123.514 94.705C123.514 87.262 117.48 81.2283 110.037 81.2283C102.594 81.2283 96.5605 87.262 96.5605 94.705C96.5605 102.148 102.594 108.182 110.037 108.182Z" fill="white"/>
    <path d="M103.368 96.0603L107.325 100.017L116.72 90.621" fill="white"/>
    <path d="M107.324 102.354L102.201 97.2302L104.535 94.8934L107.324 97.683L115.55 89.4541L117.887 91.7909L107.324 102.354Z" fill="#030047"/>
    <path d="M144.497 84.5071H129.687V91.5053H144.497V84.5071Z" fill="white"/>
    <path d="M174.319 95.7656H129.687V98.7071H174.319V95.7656Z" fill="white"/>
    <path d="M147.439 101.955H129.687V104.897H147.439V101.955Z" fill="white"/>
    <path d="M377.54 209.991C377.54 216.212 375.021 221.836 370.946 225.908C366.875 229.98 361.25 232.502 355.03 232.502H297.877C285.449 232.502 275.366 222.42 275.366 209.991C275.366 203.771 277.888 198.159 281.96 194.087C286.032 190.015 291.657 187.493 297.877 187.493H355.03C367.458 187.493 377.54 197.566 377.54 209.991Z" fill="#605EFD"/>
    <path d="M310.273 218.914C315.536 213.651 315.536 205.118 310.273 199.855C305.01 194.592 296.477 194.592 291.214 199.855C285.951 205.118 285.951 213.651 291.214 218.914C296.477 224.177 305.01 224.177 310.273 218.914Z" fill="white"/>
    <path d="M294.075 210.736L298.032 214.692L307.424 205.297" fill="white"/>
    <path d="M298.032 217.026L292.908 211.903L295.242 209.566L298.032 212.356L306.257 204.13L308.594 206.464L298.032 217.026Z" fill="#030047"/>
    <path d="M335.201 199.183H320.391V206.181H335.201V199.183Z" fill="white"/>
    <path d="M365.024 210.441H320.391V213.383H365.024V210.441Z" fill="white"/>
    <path d="M338.143 216.628H320.391V219.57H338.143V216.628Z" fill="white"/>
    <path d="M285.801 45.0097C273.373 45.0097 263.29 34.9272 263.29 22.4988C263.29 16.2906 265.812 10.6538 269.884 6.591C273.956 2.5191 279.593 -0.00305176 285.801 -0.00305176H342.953C355.382 -0.00305176 365.464 10.0673 365.464 22.4957C365.464 28.7038 362.942 34.3407 358.87 38.4126C354.798 42.4845 349.162 45.0066 342.953 45.0066H285.801V45.0097Z" fill="#FFCC3D"/>
    <path d="M288.652 35.3374C296.095 35.3374 302.128 29.3036 302.128 21.8606C302.128 14.4176 296.095 8.38385 288.652 8.38385C281.209 8.38385 275.175 14.4176 275.175 21.8606C275.175 29.3036 281.209 35.3374 288.652 35.3374Z" fill="white"/>
    <path d="M282 23.2463L285.956 27.1997L295.352 17.8039" fill="white"/>
    <path d="M285.956 29.5364L280.833 24.4131L283.167 22.0764L285.956 24.8659L294.185 16.637L296.519 18.9738L285.956 29.5364Z" fill="#030047"/>
    <path d="M323.129 11.69H308.318V18.6882H323.129V11.69Z" fill="white"/>
    <path d="M352.951 22.9515H308.318V25.893H352.951V22.9515Z" fill="white"/>
    <path d="M326.071 29.1384H308.318V32.0799H326.071V29.1384Z" fill="white"/>
    <path d="M75.5421 195.646C77.7513 199.313 76.5692 204.078 72.9015 206.287C69.2337 208.496 64.469 207.314 62.2598 203.647C60.0507 199.979 61.2328 195.214 64.9005 193.005C68.5682 190.796 73.333 191.978 75.5421 195.646Z" fill="#DAFFFF"/>
    <path d="M72.3636 167.945C70.0086 173.189 70.3824 179.264 73.3482 184.187L73.722 184.807L53.5205 196.977L53.1467 196.357C50.1323 191.355 44.8175 188.301 38.9801 187.879C28.3415 187.107 18.2256 181.355 12.3031 171.521C2.22062 154.787 8.24034 132.838 25.9106 123.746C41.2106 115.879 60.2938 120.914 69.7473 135.281C76.4416 145.437 76.9552 157.744 72.3667 167.945H72.3636Z" fill="#FFCC3D"/>
    <path d="M58.1272 192.142C57.8537 192.142 57.5863 192.005 57.4313 191.759L42.2893 167.905C40.9827 168.409 39.6426 168.844 38.2752 169.2L33.0637 170.564C31.7054 170.919 30.2954 170.719 29.086 170.002C27.8797 169.285 27.0319 168.139 26.6946 166.775C26.3208 165.252 26.6429 163.66 27.5849 162.405C28.5269 161.15 29.9642 160.396 31.5322 160.333C36.0174 160.147 40.3081 162.253 42.9183 165.863C45.8872 164.587 48.6615 162.915 51.1776 160.889C49.2055 156.893 49.3544 152.116 51.6091 148.238C52.3992 146.883 53.7393 145.965 55.286 145.719C56.8357 145.473 58.3946 145.929 59.5645 146.974C60.6129 147.907 61.2267 149.196 61.2996 150.596C61.3725 151.997 60.8863 153.34 59.9383 154.374L56.2918 158.348C55.3376 159.387 54.3288 160.369 53.2743 161.287L67.2859 185.821C67.5108 186.216 67.374 186.721 66.979 186.949C66.584 187.177 66.0795 187.037 65.8516 186.642L51.9859 162.359C49.4911 164.341 46.7532 165.988 43.836 167.27L58.82 190.878C59.0631 191.264 58.9507 191.774 58.5648 192.017C58.428 192.106 58.2761 192.145 58.1241 192.145L58.1272 192.142ZM32.0761 161.973C31.9181 161.973 31.7601 161.976 31.6021 161.983C30.5325 162.025 29.551 162.542 28.9067 163.399C28.2656 164.256 28.0407 165.34 28.299 166.383C28.5299 167.312 29.1073 168.096 29.9308 168.586C30.7543 169.075 31.7206 169.212 32.6444 168.969L37.8558 167.604C39.0379 167.294 40.1956 166.927 41.3321 166.501C39.1199 163.663 35.6922 161.973 32.0731 161.973H32.0761ZM56.1125 147.302C55.9241 147.302 55.7387 147.318 55.5503 147.348C54.4929 147.515 53.5782 148.144 53.0403 149.068C51.132 152.347 50.9436 156.358 52.4843 159.783C53.3898 158.977 54.2558 158.126 55.0793 157.227L58.7258 153.255C59.3731 152.55 59.7043 151.633 59.6557 150.675C59.607 149.718 59.1877 148.84 58.4736 148.202C57.8172 147.615 56.9785 147.302 56.1155 147.302H56.1125Z" fill="white"/>
    <path d="M78.5868 192.92L58.4278 205.066C56.8325 206.026 54.7601 205.512 53.7998 203.917L50.7337 198.827C49.7735 197.232 50.2871 195.16 51.8824 194.199L72.0413 182.053C73.6367 181.093 75.7091 181.607 76.6693 183.202L79.7354 188.292C80.6956 189.887 80.1821 191.96 78.5868 192.92Z" fill="#DAFFFF"/>
    <path d="M18.8632 114.691L16.4736 116.13L19.4368 121.05L21.8264 119.611L18.8632 114.691Z" fill="#FFCC3D"/>
    <path d="M2.09454 131.045L0.745117 133.486L5.77163 136.265L7.12105 133.823L2.09454 131.045Z" fill="#FFCC3D"/>
    <path d="M41.584 108.885L38.7949 108.937L38.9022 114.68L41.6912 114.627L41.584 108.885Z" fill="#FFCC3D"/>
    <path d="M89.0554 34.4896L83.8713 37.7532C81.4373 39.2695 78.2405 38.5433 76.7181 36.1275L73.4545 30.9434C71.9321 28.5246 72.6614 25.3278 75.0772 23.8054L80.2674 20.5236C82.6831 19.0012 85.8829 19.7305 87.4205 22.1493L90.6811 27.3516C92.2035 29.7674 91.4742 32.9672 89.0584 34.4896H89.0554Z" fill="#FFCC3D"/>
    <path d="M44.1004 233.451L40.8642 235.49C39.3448 236.438 37.3484 235.982 36.3972 234.475L34.3582 231.238C33.4102 229.728 33.8629 227.732 35.3732 226.784L38.6125 224.735C40.1227 223.784 42.1192 224.24 43.0794 225.75L45.1153 228.999C46.0665 230.509 45.6107 232.505 44.1004 233.454V233.451Z" fill="#FFCC3D"/>
    <path d="M12.1389 64.5305L8.90262 66.5664C7.38326 67.5145 5.38681 67.0587 4.43569 65.5515L2.3967 62.3152C1.44558 60.805 1.90139 58.8085 3.41164 57.8605L6.65092 55.8123C8.16117 54.8612 10.1576 55.317 11.1179 56.8273L13.1538 60.0757C14.1019 61.5859 13.6491 63.5824 12.1389 64.5335V64.5305Z" fill="#FFCC3D"/>
    <path d="M110.321 151.517L107.085 153.556C105.565 154.504 103.569 154.048 102.618 152.541L100.579 149.305C99.6305 147.795 100.083 145.798 101.59 144.85L104.83 142.802C106.34 141.851 108.336 142.307 109.297 143.817L111.333 147.065C112.284 148.576 111.828 150.572 110.321 151.52V151.517Z" fill="#FFCC3D"/>
    </g>
    <defs>
    <clipPath id="clip0_366_1849">
    <rect width="376.8" height="295" fill="white" transform="translate(0.740723)"/>
    </clipPath>
    </defs>
    </svg>
    