<svg width="341" height="431" viewBox="0 0 341 431" fill="none" xmlns="http://www.w3.org/2000/svg">
    <ellipse cx="170.188" cy="421.052" rx="170.188" ry="9.005" fill="#D9D9D9"/>
    <g clip-path="url(#clip0_0_1)">
    <path d="M182.426 101.038C181.309 95.0488 185.232 89.2835 191.188 88.1605C197.145 87.0376 202.878 90.9822 203.995 96.9711C205.112 102.96 201.189 108.725 195.233 109.848C189.276 110.971 183.542 107.027 182.426 101.038Z" fill="#D3DFFF"/>
    <path d="M177.201 121.745C176.573 118.376 178.799 115.129 182.172 114.494C185.546 113.859 188.79 116.075 189.417 119.444C190.045 122.813 187.819 126.059 184.445 126.694C181.072 127.33 177.828 125.114 177.201 121.745Z" fill="#D3DFFF"/>
    <path d="M189.748 74.164C172.876 57.1999 172.876 29.6956 189.748 12.7315C206.62 -4.23265 233.975 -4.23265 250.847 12.7315C267.719 29.6956 267.719 57.1999 250.847 74.164C233.975 91.1282 206.62 91.1282 189.748 74.164Z" fill="#D3DFFF"/>
    <path d="M236.884 48.9201C233.878 48.9201 231.441 46.4701 231.441 43.4479C231.441 40.4258 233.878 37.9758 236.884 37.9758C239.89 37.9758 242.326 40.4258 242.326 43.4479C242.326 46.4701 239.89 48.9201 236.884 48.9201Z" fill="white"/>
    <path d="M220.297 48.9201C217.291 48.9201 214.855 46.4701 214.855 43.4479C214.855 40.4258 217.291 37.9758 220.297 37.9758C223.303 37.9758 225.739 40.4258 225.739 43.4479C225.739 46.4701 223.303 48.9201 220.297 48.9201Z" fill="white"/>
    <path d="M203.709 48.9201C200.703 48.9201 198.267 46.4701 198.267 43.4479C198.267 40.4258 200.703 37.9758 203.709 37.9758C206.715 37.9758 209.151 40.4258 209.151 43.4479C209.151 46.4701 206.715 48.9201 203.709 48.9201Z" fill="white"/>
    <path d="M251.247 398.996L247.21 414.644C246.157 418.724 242.233 421.483 237.89 421.184C224.656 420.281 197.154 417.019 181.369 405.32L185.854 382.769C207.557 381.537 227.849 382.752 245.427 388.697C249.828 390.186 252.371 394.621 251.243 398.991L251.247 398.996Z" fill="#102048"/>
    <path d="M225.952 411.45C226.183 411.45 226.393 411.298 226.456 411.066L231.877 391.553C231.957 391.275 231.793 390.984 231.512 390.904C231.231 390.828 230.942 390.988 230.866 391.271L225.445 410.784C225.365 411.066 225.529 411.353 225.81 411.433C225.856 411.446 225.906 411.455 225.952 411.455V411.45Z" fill="white"/>
    <path d="M214.237 408.813C214.467 408.813 214.677 408.662 214.74 408.429L220.161 388.916C220.241 388.638 220.078 388.347 219.796 388.267C219.515 388.186 219.226 388.351 219.15 388.634L213.729 408.147C213.649 408.429 213.813 408.716 214.094 408.797C214.14 408.809 214.19 408.818 214.237 408.818V408.813Z" fill="white"/>
    <path d="M200.633 314.412L251.07 329.466L213.616 381.069L159.838 385.368L85.6631 353.835L113.849 311.189L200.633 314.412Z" fill="#FBC343"/>
    <path d="M138.451 321.58C27.6812 288.613 9.88126 387.043 182.707 404.961C188.813 398.055 195.946 386.073 198.778 376.052L107.513 333.647L138.451 321.58Z" fill="#FBC343"/>
    <path d="M133.747 392.127C138.929 390.46 143.893 387.165 143.893 387.165L161.693 392.781L157.615 412.252L139.122 416.028C133.487 405.666 133.16 397.16 133.747 392.127Z" fill="#F9B384"/>
    <path d="M198.384 376.736L199.173 375.369C180.131 364.243 131.363 337.516 89.8092 329.63L89.5155 331.187C130.826 339.026 179.409 365.652 198.38 376.736H198.384Z" fill="#E49B31"/>
    <path d="M200.633 314.412C303.736 294.701 330.44 394.329 157.61 412.248C151.505 405.341 146.721 397.182 143.889 387.161C170.438 369.302 200.121 352.325 232.65 336.153L200.629 314.412H200.633Z" fill="#FBC343"/>
    <path d="M144.313 387.828C149.218 384.689 154.329 381.373 159.738 377.858C186.9 360.227 217.682 340.241 243.837 328.845L243.212 327.394C216.94 338.84 186.098 358.864 158.886 376.529C153.478 380.039 148.371 383.356 143.47 386.495L144.313 387.828Z" fill="#E49B31"/>
    <path d="M276.281 363.809L277.657 363.045C273.788 355.999 267.587 351.249 259.232 348.924L258.812 350.447C266.856 352.687 272.572 357.058 276.281 363.809Z" fill="#E49B31"/>
    <path d="M61.0872 357.814C64.7966 351.063 70.5117 346.692 78.5557 344.452L78.1361 342.929C69.7816 345.253 63.5797 350.008 59.7109 357.05L61.0872 357.814Z" fill="#E49B31"/>
    <path d="M167.265 411.37L168.415 410.29C160.165 401.409 155.101 392.034 152.927 381.626L151.387 381.951C153.62 392.646 158.814 402.27 167.261 411.37H167.265Z" fill="#E49B31"/>
    <path d="M82.3236 386.326C95.533 378.12 121.142 392.3 127.57 393.017C129.446 393.228 131.611 392.815 133.743 392.127C133.155 397.16 133.483 405.666 139.118 416.028L135.975 416.669C135.975 416.669 114.26 424.673 91.2236 420.015C69.9618 415.716 71.9382 392.781 82.3236 386.33V386.326Z" fill="#102048"/>
    <path d="M100.33 413.163C100.38 413.163 100.435 413.155 100.489 413.138C100.766 413.049 100.917 412.754 100.833 412.475C99.2638 407.48 98.5799 397.65 103.124 391.047C103.288 390.806 103.229 390.477 102.99 390.313C102.751 390.148 102.424 390.207 102.26 390.448C97.5015 397.363 98.198 407.598 99.8303 412.792C99.9017 413.015 100.107 413.159 100.33 413.159V413.163Z" fill="white"/>
    <path d="M110.689 415.142C110.739 415.142 110.794 415.133 110.848 415.117C111.125 415.028 111.276 414.733 111.193 414.454C109.623 409.459 108.939 399.628 113.484 393.026C113.647 392.785 113.589 392.456 113.349 392.292C113.11 392.127 112.783 392.186 112.619 392.427C107.861 399.342 108.557 409.577 110.19 414.771C110.261 414.994 110.467 415.138 110.689 415.138V415.142Z" fill="white"/>
    <path d="M218.874 185.959C218.874 185.959 192.908 163.758 193.869 159.539C194.557 156.523 201.913 160.944 201.913 160.944C201.913 160.944 191.599 148.637 192.124 147.144C193.059 144.473 200.197 149.452 200.197 149.452C200.197 149.452 195.376 142.473 197.679 141.334C199.983 140.195 205.01 144.498 205.01 144.498C205.01 144.498 202.073 140.625 203.453 139.608C204.834 138.592 210.784 142.773 210.784 142.773C210.784 142.773 208.648 137.887 213.184 139.739C217.72 141.591 249.535 170.948 249.535 170.948L218.874 185.959Z" fill="#F9B384"/>
    <path d="M208.249 159.628C208.375 159.628 208.501 159.582 208.602 159.489C213.058 155.396 215.026 154.401 219.94 152.877C220.216 152.793 220.372 152.498 220.288 152.219C220.204 151.941 219.91 151.785 219.633 151.869C214.539 153.443 212.504 154.472 207.892 158.708C207.678 158.906 207.662 159.24 207.859 159.455C207.964 159.569 208.102 159.628 208.245 159.628H208.249Z" fill="#E28B6D"/>
    <path d="M216.075 171.669C216.1 171.669 216.125 171.669 216.146 171.665C216.432 171.623 216.633 171.357 216.591 171.07C216.079 167.4 214.929 165.104 213.079 164.058C211.493 163.164 209.433 163.252 206.948 164.332C206.684 164.446 206.558 164.758 206.676 165.024C206.789 165.29 207.1 165.417 207.364 165.298C209.529 164.358 211.279 164.248 212.563 164.978C214.09 165.843 215.097 167.94 215.551 171.218C215.588 171.479 215.811 171.673 216.071 171.673L216.075 171.669Z" fill="#E28B6D"/>
    <path d="M217.296 149.473C217.435 149.473 217.573 149.418 217.678 149.308C217.875 149.097 217.867 148.764 217.657 148.561L211.14 142.389C210.931 142.186 210.599 142.199 210.398 142.41C210.2 142.621 210.209 142.954 210.419 143.157L216.935 149.329C217.036 149.426 217.166 149.473 217.296 149.473Z" fill="#E28B6D"/>
    <path d="M211.266 151.582C211.396 151.582 211.526 151.532 211.631 151.435C211.841 151.232 211.845 150.899 211.648 150.688L205.387 144.131C205.186 143.92 204.854 143.912 204.644 144.115C204.435 144.317 204.43 144.65 204.628 144.861L210.888 151.418C210.993 151.527 211.127 151.578 211.266 151.578V151.582Z" fill="#E28B6D"/>
    <path d="M205.102 155.274C205.232 155.274 205.358 155.228 205.458 155.131C205.668 154.932 205.681 154.599 205.484 154.384L200.574 149.089C200.377 148.878 200.045 148.865 199.831 149.064C199.622 149.262 199.609 149.595 199.806 149.81L204.716 155.105C204.821 155.215 204.959 155.274 205.102 155.274Z" fill="#E28B6D"/>
    <path d="M120.785 334.453L215.723 338.144L226.213 251.126C226.213 251.126 194.431 220.817 182.204 209.653L161.559 208.59C97.5135 237.862 108 274.42 120.785 334.453Z" fill="#3A6BEA"/>
    <path d="M161.563 208.585C161.563 208.585 88.2907 214.884 65.191 265.361C42.5865 314.754 135.476 332.339 135.476 332.339L161.563 208.585Z" fill="#3A6BEA"/>
    <path d="M245.318 219.403L215.039 182.356L243.354 165.104C255.166 173.361 278.006 192.064 297.362 213.243C301.634 217.918 304.974 223.378 306.653 229.39C308.088 234.52 308.348 239.587 307.542 244.549C305.44 257.484 295.323 267.462 281.816 269.053C270.281 270.412 226.217 266.944 190.55 256.396L180.06 215.686C185.452 212.611 225.512 212.075 245.318 219.403Z" fill="#3A6BEA"/>
    <g opacity="0.8">
    <path d="M100.413 228.618C100.254 228.58 100.098 228.546 99.939 228.508C100.27 228.31 100.602 228.12 100.933 227.926C106.304 229.17 111.843 230.44 117.307 231.103C120.588 231.499 131.557 232.229 134.758 224.884C136.353 221.23 135.144 217.163 133.344 214.311C133.609 214.235 133.869 214.159 134.129 214.083C135.975 217.104 137.163 221.344 135.48 225.2C132.06 233.048 120.63 232.305 117.21 231.887C111.592 231.208 105.906 229.892 100.413 228.618Z" fill="white"/>
    <path d="M66.2189 285.545C69.7185 284.187 73.3355 282.778 77.1372 283.141C83.8049 283.773 89.5116 290.406 89.8599 297.92C90.0948 303.046 88.1478 308.417 84.4385 313.138C84.2161 312.999 83.9937 312.855 83.7713 312.716C87.401 308.126 89.306 302.915 89.0752 297.958C88.7479 290.819 83.3601 284.524 77.0659 283.93C73.453 283.592 70.0751 284.9 66.5042 286.284C65.2286 286.777 63.932 287.28 62.6144 287.701C62.5473 287.448 62.4802 287.191 62.4214 286.934C63.7054 286.52 64.9726 286.031 66.2231 285.545H66.2189Z" fill="white"/>
    <path d="M251.159 260.387C255.733 256.582 262.841 255.565 270.658 257.598C277.624 259.408 283.599 262.999 287.703 267.745C287.435 267.834 287.17 267.931 286.897 268.011C282.903 263.505 277.15 260.1 270.461 258.362C262.896 256.392 256.039 257.354 251.663 260.995C249.581 262.725 248.108 264.973 247.038 267.395C246.77 267.366 246.497 267.332 246.224 267.302C247.345 264.695 248.906 262.261 251.159 260.383V260.387Z" fill="white"/>
    <path d="M292.516 208.067C283.943 205.923 275.58 202.915 267.863 198.447C264.947 196.76 261.657 194.608 259.341 191.448C256.878 188.085 256.06 184.081 257.151 180.74C257.579 179.428 258.338 178.276 259.286 177.356C259.488 177.521 259.689 177.69 259.891 177.854C259.005 178.702 258.296 179.77 257.898 180.989C256.886 184.09 257.658 187.824 259.97 190.98C262.199 194.021 265.409 196.118 268.254 197.764C275.53 201.979 283.402 204.894 291.488 206.999C291.832 207.354 292.172 207.712 292.511 208.067H292.516Z" fill="white"/>
    </g>
    <path d="M154.853 189.241L154.866 190.591L155.08 211.573L155.105 213.847C155.143 217.403 156.595 220.627 158.936 222.968C161.265 225.293 164.471 226.753 168.021 226.778C175.175 226.816 181.029 221.04 181.096 213.834L181.348 187.904L154.853 189.241Z" fill="#F9B384"/>
    <path d="M154.871 190.591L155.085 211.573C166.683 206.826 171.458 194.203 171.458 194.203L154.875 190.591H154.871Z" fill="#102048"/>
    <path d="M150.28 153.978C146.126 158.995 133.986 187.41 146.289 197.106C160.132 208.016 181.201 190.085 181.201 190.085L184.029 156.987L165.743 152.139L150.28 153.978Z" fill="#F9B384"/>
    <path d="M193.345 152.156C193.345 152.156 233.909 173.428 200.835 234.744C196.588 242.621 187.176 246.055 179.128 242.216C170.492 238.094 167.224 227.487 171.915 219.112C177.324 209.451 182.548 197.004 180.316 187.748L193.345 152.16V152.156Z" fill="#102048"/>
    <path d="M181.754 170.027C177.469 165.719 177.469 158.733 181.754 154.424C186.039 150.116 192.987 150.116 197.272 154.424C201.557 158.733 201.557 165.719 197.272 170.027C192.987 174.336 186.039 174.336 181.754 170.027Z" fill="#FBC343"/>
    <path d="M176.014 175.479C177.202 168.597 177.924 163.876 171.004 160.328C171.004 160.328 146.62 164.788 141.967 155.535C137.313 146.287 144.405 131.689 159.255 141.828C197.272 134.36 202.37 170.133 190.843 182.056L179.468 180.301C177.177 179.947 175.62 177.77 176.014 175.475V175.479Z" fill="#102048"/>
    <path d="M157.136 177.128C156.242 177.128 155.516 176.399 155.516 175.5C155.516 174.6 156.242 173.871 157.136 173.871C158.031 173.871 158.756 174.6 158.756 175.5C158.756 176.399 158.031 177.128 157.136 177.128Z" fill="#102048"/>
    <path d="M146.163 171.694C145.269 171.694 144.544 170.965 144.544 170.066C144.544 169.166 145.269 168.437 146.163 168.437C147.058 168.437 147.783 169.166 147.783 170.066C147.783 170.965 147.058 171.694 146.163 171.694Z" fill="#102048"/>
    <path d="M147.288 180.516C147.401 180.516 147.514 180.474 147.602 180.39C147.787 180.213 147.796 179.921 147.619 179.736C146.969 179.048 146.256 178.082 146.558 177.377C146.868 176.647 148.182 176.335 148.786 176.335C150.078 176.335 150.699 174.023 150.813 173.559C150.871 173.31 150.72 173.061 150.473 173.002C150.225 172.939 149.977 173.095 149.919 173.344C149.684 174.323 149.147 175.415 148.786 175.415C148.165 175.415 146.272 175.711 145.714 177.019C145.316 177.951 145.731 179.082 146.956 180.377C147.044 180.474 147.166 180.52 147.288 180.52V180.516Z" fill="#102048"/>
    <path d="M147.203 186.701C147.291 186.701 147.38 186.676 147.459 186.621C150.51 184.55 153.594 186.288 153.623 186.305C153.842 186.431 154.123 186.355 154.249 186.136C154.375 185.917 154.299 185.634 154.081 185.507C153.934 185.423 150.468 183.47 146.943 185.858C146.733 186.001 146.679 186.288 146.821 186.499C146.91 186.63 147.056 186.701 147.203 186.701Z" fill="#102048"/>
    <path d="M157.849 168.441C156.926 170.188 158.533 170.538 160.417 171.542C162.301 172.546 164.227 172.918 164.668 172.082C165.109 171.251 163.938 169.762 162.054 168.754C160.17 167.745 158.563 167.087 157.849 168.437V168.441Z" fill="#102048"/>
    <path d="M150.981 165.29C150.574 166.846 149.42 166.167 147.741 165.724C146.063 165.281 144.703 164.433 144.896 163.691C145.089 162.948 146.608 162.703 148.291 163.146C149.974 163.589 151.299 164.087 150.985 165.294L150.981 165.29Z" fill="#102048"/>
    <path opacity="0.4" d="M161.372 186.62C159.432 184.82 159.31 181.78 161.1 179.829C162.889 177.879 165.913 177.756 167.853 179.555C169.793 181.355 169.915 184.395 168.126 186.346C166.336 188.297 163.312 188.419 161.372 186.62Z" fill="#EB5D60"/>
    <path d="M176.946 187.652C174.761 184.806 175.597 180.475 178.813 177.98C182.029 175.484 186.407 175.768 188.592 178.615C190.777 181.461 189.941 185.791 186.725 188.287C183.509 190.783 179.13 190.498 176.946 187.652Z" fill="#F9B384"/>
    <path d="M179.925 185.533C180.177 185.533 180.383 185.326 180.383 185.073C180.383 183.71 181.041 182.453 182.149 181.702C183.093 181.061 184.222 180.913 185.166 181.297C185.401 181.39 185.67 181.28 185.766 181.044C185.863 180.807 185.75 180.537 185.515 180.44C184.289 179.938 182.842 180.12 181.642 180.934C180.282 181.854 179.468 183.398 179.468 185.069C179.468 185.322 179.674 185.528 179.925 185.528V185.533Z" fill="#102048"/>
    <path d="M245.701 219.041L262.261 237.054L261.49 237.77L244.93 219.757L245.701 219.041Z" fill="#102048"/>
    <path d="M129.027 296.46L129.333 295.452C117.278 291.756 105.575 287.339 94.9709 274.006L94.1527 274.665C104.945 288.233 116.808 292.718 129.027 296.464V296.46Z" fill="#102048"/>
    <path d="M121.696 255.615H224.257C227.946 255.615 230.938 258.868 230.938 262.881V336.507C230.938 340.52 227.946 343.773 224.257 343.773H121.696C118.007 343.773 115.015 340.52 115.015 336.507V262.881C115.015 258.868 118.007 255.615 121.696 255.615Z" fill="#D3DFFF"/>
    <path d="M167.563 295.038C167.173 295.038 166.858 295.38 166.858 295.806V303.578C166.858 304 167.173 304.345 167.563 304.345H178.393C178.784 304.345 179.098 304.004 179.098 303.578V295.806C179.098 295.384 178.784 295.038 178.393 295.038H167.563ZM167.563 292.929H178.393C179.937 292.929 181.196 294.22 181.196 295.806V303.578C181.196 305.164 179.937 306.455 178.393 306.455H167.563C166.019 306.455 164.76 305.164 164.76 303.578V295.806C164.76 294.22 166.019 292.929 167.563 292.929Z" fill="#1F3C88"/>
    </g>
    <g clip-path="url(#clip1_0_1)">
    <path d="M105.364 21.825C104.271 18.2234 102.35 14.9167 99.5997 11.8939C96.8439 8.87111 93.0853 6.37513 88.3239 4.40135C83.5625 2.42756 77.513 1.44067 70.1754 1.44067C64.3214 1.44067 58.3561 2.22351 52.2785 3.78918C46.1953 5.36041 40.9185 7.59483 36.4434 10.4989L42.2693 26.3578L39.1468 28.8659L43.6753 30.1857C48.1448 27.866 52.2177 26.1816 55.8921 25.1325C59.5609 24.0891 63.4599 23.5669 67.5936 23.5669C71.7273 23.5669 74.8479 24.5538 76.9704 26.5276C79.093 28.5069 80.1519 30.8832 80.1519 33.6742C80.1519 37.0429 79.0593 40.0324 76.8863 42.6471C74.702 45.2618 72.2932 47.9043 69.6544 50.5756C67.8228 52.4307 66.0417 54.3469 64.3214 56.3207C62.6021 58.3001 61.0782 60.4158 59.7621 62.6845C58.4403 64.9477 57.3814 67.3861 56.5806 70.0008C55.7743 72.6155 55.3767 75.5475 55.3767 78.7975C55.3767 79.8466 55.3992 81.0941 55.4609 82.5466C55.4712 82.8147 55.4852 83.0753 55.5011 83.3331H51.2205L55.8921 86.4654H78.6065C78.4887 85.7679 78.4325 84.9563 78.4325 84.0269V81.9344C78.4325 79.9606 78.8357 78.0156 79.6365 76.0984C80.4372 74.1812 81.4456 72.3549 82.6505 70.6084C83.8544 68.8674 85.1995 67.2108 86.6944 65.6461C88.1845 64.0749 89.6186 62.5945 90.9965 61.1995C92.8281 59.3445 94.7214 57.3716 96.6709 55.2782C98.6203 53.1857 100.345 50.9846 101.835 48.6593C103.326 46.334 104.558 43.8102 105.532 41.0768C106.507 38.3489 107 35.3595 107 32.1039C107 28.8482 106.451 25.4284 105.364 21.8268V21.825Z" fill="#E49B31"/>
    <path d="M62.7845 22.4594C58.6994 22.4594 54.8463 22.9639 51.2205 23.974C47.5891 24.9897 43.5649 26.6193 39.1468 28.8649L32 9.81344C36.4228 7.00303 41.6379 4.84003 47.6499 3.31981C53.6555 1.80515 59.5516 1.04736 65.3363 1.04736C72.5879 1.04736 78.5672 2.00272 83.2725 3.9125C87.9778 5.82228 91.6924 8.23757 94.4164 11.163C97.1348 14.0884 99.0328 17.2884 100.112 20.7741C101.186 24.2597 101.729 27.5747 101.729 30.7199C101.729 33.8652 101.241 36.7637 100.279 39.4035C99.3153 42.0488 98.0974 44.4919 96.625 46.7421C95.1526 48.9923 93.4473 51.1219 91.5212 53.1476C89.5952 55.1733 87.7234 57.0831 85.9133 58.8779C84.5513 60.2284 83.1341 61.6605 81.6617 63.1816C80.1837 64.6963 78.8554 66.299 77.6645 67.9844C76.4747 69.6752 75.4775 71.4422 74.6861 73.2972C73.8947 75.1523 73.4962 77.0352 73.4962 78.945V80.9707C73.4962 81.8713 73.5514 82.656 73.6674 83.3313H51.2205C50.9876 82.2062 50.8501 80.9438 50.794 79.5386C50.7332 78.1334 50.7107 76.9257 50.7107 75.9101C50.7107 72.7648 51.1036 69.9275 51.9006 67.3963C52.692 64.866 53.7387 62.5054 55.0446 60.3155C56.3458 58.1201 57.8509 56.073 59.5506 54.1568C61.2503 52.247 63.0108 50.391 64.8209 48.5962C67.428 46.0112 69.8087 43.4531 71.9677 40.9228C74.1155 38.3925 75.195 35.4995 75.195 32.2392C75.195 29.5383 74.1491 27.2389 72.051 25.3236C69.9528 23.4138 66.8639 22.4584 62.7845 22.4584V22.4594Z" fill="#FBC343"/>
    <path d="M80.1604 108.326C80.1604 112.387 78.8349 115.52 76.1829 117.731C73.5318 119.945 70.5347 121.048 67.1886 121.048C63.8425 121.048 60.8416 119.945 58.1906 117.731C55.5433 115.52 54.2178 112.387 54.2178 108.326C54.2178 104.266 55.5433 101.137 58.1906 98.9221C62.2719 95.5069 68.3102 94.7464 73.0884 97.1431C77.3288 99.2699 80.1604 103.589 80.1604 108.326Z" fill="#E49B31"/>
    <path d="M75.717 108.326C75.717 112.387 74.3915 115.52 71.7395 117.73C69.0885 119.945 66.0913 121.048 62.7453 121.048C59.3992 121.048 56.3983 119.945 53.7472 117.73C51.0999 115.52 49.7744 112.387 49.7744 108.326C49.7744 104.266 51.0999 101.137 53.7472 98.922C56.3983 96.7117 59.3954 95.6042 62.7453 95.6042C66.0951 95.6042 69.0876 96.7117 71.7395 98.922C74.3906 101.137 75.717 104.27 75.717 108.326Z" fill="#FBC343"/>
    </g>
    <defs>
    <clipPath id="clip0_0_1">
    <rect width="253.992" height="421.471" fill="white" transform="matrix(-1 0 0 1 307.991 0)"/>
    </clipPath>
    <clipPath id="clip1_0_1">
    <rect width="75" height="120" fill="white" transform="translate(32 1.04736)"/>
    </clipPath>
    </defs>
    </svg>
    