<svg width="383" height="504" viewBox="0 0 383 504" fill="none" xmlns="http://www.w3.org/2000/svg">
    <g clip-path="url(#clip0_383_1500)">
    <g filter="url(#filter0_f_383_1500)">
    <circle cx="192.361" cy="164.242" r="50.9634" fill="#FFE70F"/>
    </g>
    <g style="mix-blend-mode:soft-light" opacity="0.4">
    <path d="M202.82 137.514L233.152 -19.332L213.531 139.21L290.849 -0.586973L223.186 144.127L339.926 35.0663L230.854 151.794L375.58 84.1426L235.78 161.449L394.325 141.828L237.476 172.16L394.325 202.491L235.78 182.87L375.58 260.186L230.854 192.525L339.926 309.253L223.186 200.192L290.849 344.916L213.531 205.119L233.152 363.651L202.82 206.814L172.489 363.651L192.12 205.119L114.802 344.916L182.455 200.192L65.7246 309.253L174.787 192.525L30.0706 260.186L169.87 182.87L11.3252 202.491L168.174 172.16L11.3252 141.828L169.87 161.449L30.0706 84.1426L174.787 151.794L65.7246 35.0663L182.455 144.127L114.802 -0.586973L192.12 139.21L172.489 -19.332L202.82 137.514Z" fill="white" fill-opacity="0.25"/>
    </g>
    <path d="M77.2705 273.888L83.3369 272.767L84.6933 266.362L86.0498 272.767L92.1256 273.888L86.078 275.367L84.6933 281.405L83.318 275.367L77.2705 273.888Z" fill="#DBDBDB"/>
    <path d="M325.831 426.533L331.907 425.412L333.263 419.007L334.62 425.412L340.686 426.533L334.648 428.012L333.263 434.05L331.879 428.012L325.831 426.533Z" fill="#DBDBDB"/>
    <path d="M339.16 138.189L342.551 137.558L343.304 133.978L344.067 137.558L347.459 138.189L344.077 139.008L343.304 142.39L342.532 139.008L339.16 138.189Z" fill="#DBDBDB"/>
    <path d="M34.9189 396.183L38.3101 395.561L39.0731 391.982L39.8267 395.561L43.2272 396.183L39.8455 397.012L39.0731 400.394L38.3007 397.012L34.9189 396.183Z" fill="#DBDBDB"/>
    <path d="M125.189 379.812L128.58 379.181L129.334 375.611L130.097 379.181L133.488 379.812L130.116 380.641L129.334 384.013L128.561 380.641L125.189 379.812Z" fill="#DBDBDB"/>
    <path d="M357.104 312.254L360.496 311.632L361.259 308.053L362.012 311.632L365.403 312.254L362.031 313.083L361.259 316.465L360.486 313.083L357.104 312.254Z" fill="#DBDBDB"/>
    <path d="M17.5864 155.577L20.987 154.956L21.7406 151.376L22.5036 154.956L25.8947 155.577L22.513 156.406L21.7406 159.788L20.9681 156.406L17.5864 155.577Z" fill="#DBDBDB"/>
    <path d="M146.892 401.373C148.154 401.373 148.164 399.405 146.892 399.405C145.621 399.405 145.621 401.373 146.892 401.373Z" fill="#DBDBDB"/>
    <path d="M32.1022 228.919C33.3644 228.919 33.3739 226.95 32.1022 226.95C30.8305 226.95 30.8305 228.919 32.1022 228.919Z" fill="#DBDBDB"/>
    <path d="M345.302 417.311C346.196 417.311 346.196 415.917 345.302 415.917C344.407 415.917 344.407 417.311 345.302 417.311Z" fill="#DBDBDB"/>
    <path d="M339.16 164.187C340.055 164.187 340.055 162.793 339.16 162.793C338.265 162.793 338.265 164.187 339.16 164.187Z" fill="#DBDBDB"/>
    <path d="M340.686 287.283C341.581 287.283 341.581 285.889 340.686 285.889C339.791 285.889 339.791 287.283 340.686 287.283Z" fill="#DBDBDB"/>
    <path d="M147.844 110.627C148.738 110.627 148.738 109.233 147.844 109.233C146.949 109.233 146.949 110.627 147.844 110.627Z" fill="#DBDBDB"/>
    <path d="M266.128 300.15C267.023 300.15 267.023 298.756 266.128 298.756C265.233 298.756 265.233 300.15 266.128 300.15Z" fill="#DBDBDB"/>
    <path d="M80.5579 244.433C81.4528 244.433 81.4528 243.039 80.5579 243.039C79.663 243.039 79.663 244.433 80.5579 244.433Z" fill="#DBDBDB"/>
    <path d="M356.379 356.46C357.274 356.46 357.274 355.066 356.379 355.066C355.484 355.066 355.484 356.46 356.379 356.46Z" fill="#DBDBDB"/>
    <path d="M43.8958 160.485C44.7907 160.485 44.7907 159.091 43.8958 159.091C43.0009 159.091 43.0009 160.485 43.8958 160.485Z" fill="#DBDBDB"/>
    <path d="M345.132 355.763C347.562 355.763 347.562 351.996 345.132 351.996C342.702 351.996 342.702 355.763 345.132 355.763Z" fill="#DBDBDB"/>
    <path d="M310.712 269.696C313.142 269.696 313.142 265.928 310.712 265.928C308.282 265.928 308.282 269.696 310.712 269.696Z" fill="#DBDBDB"/>
    <path d="M103.627 200.189C106.057 200.189 106.057 196.421 103.627 196.421C101.197 196.421 101.197 200.189 103.627 200.189Z" fill="#DBDBDB"/>
    <path d="M63.4326 353.879C65.8629 353.879 65.8629 350.112 63.4326 350.112C61.0023 350.112 61.0023 353.879 63.4326 353.879Z" fill="#DBDBDB"/>
    <path d="M88.48 130.662L94.5558 129.541L95.9122 123.146L97.2687 129.541L103.335 130.662L97.2875 132.141L95.9122 138.189L94.5275 132.141L88.48 130.662Z" fill="#FFC727"/>
    <path d="M254.947 254.078L261.013 252.957L262.37 246.562L263.726 252.957L269.802 254.078L263.754 255.557L262.37 261.605L260.985 255.557L254.947 254.078Z" fill="#FFC727"/>
    <path d="M119.594 232.14L122.994 231.518L123.748 227.939L124.511 231.518L127.902 232.14L124.52 232.969L123.748 236.351L122.975 232.969L119.594 232.14Z" fill="#FFC727"/>
    <path d="M124.341 114.141L127.732 113.509L128.495 109.93L129.249 113.509L132.64 114.141L129.268 114.969L128.495 118.342L127.723 114.969L124.341 114.141Z" fill="#FFC727"/>
    <path d="M286.211 139.8L289.603 139.178L290.366 135.598L291.119 139.178L294.52 139.809L291.138 140.628L290.366 144.01L289.593 140.628L286.211 139.8Z" fill="#FFC727"/>
    <path d="M194.358 79.6457L197.75 79.024L198.513 75.4446L199.266 79.024L202.657 79.6457L199.285 80.4747L198.513 83.8563L197.74 80.4747L194.358 79.6457Z" fill="#FFC727"/>
    <path d="M110.032 240.335C111.295 240.335 111.304 238.366 110.032 238.366C108.761 238.366 108.761 240.335 110.032 240.335Z" fill="#FFC727"/>
    <path d="M274.408 244.866C275.303 244.866 275.303 243.472 274.408 243.472C273.513 243.472 273.513 244.866 274.408 244.866Z" fill="#FFC727"/>
    <path d="M113.339 183.318C114.234 183.318 114.234 181.924 113.339 181.924C112.444 181.924 112.444 183.318 113.339 183.318Z" fill="#FFC727"/>
    <path d="M269.802 114.837C270.697 114.837 270.697 113.443 269.802 113.443C268.907 113.443 268.907 114.837 269.802 114.837Z" fill="#FFC727"/>
    <path d="M106.349 136.992C107.244 136.992 107.244 135.598 106.349 135.598C105.455 135.598 105.455 136.992 106.349 136.992Z" fill="#FFC727"/>
    <path d="M285.486 184.015C286.381 184.015 286.381 182.621 285.486 182.621C284.591 182.621 284.591 184.015 285.486 184.015Z" fill="#FFC727"/>
    <path d="M220.659 84.5533C221.554 84.5533 221.554 83.1592 220.659 83.1592C219.764 83.1592 219.764 84.5533 220.659 84.5533Z" fill="#FFC727"/>
    <path d="M274.239 183.318C276.669 183.318 276.669 179.55 274.239 179.55C271.808 179.55 271.808 183.318 274.239 183.318Z" fill="#FFC727"/>
    <path d="M243.464 115.327C245.895 115.327 245.895 111.559 243.464 111.559C241.034 111.559 241.034 115.327 243.464 115.327Z" fill="#FFC727"/>
    <path d="M131.161 210.164C133.591 210.164 133.591 206.396 131.161 206.396C128.731 206.396 128.731 210.164 131.161 210.164Z" fill="#FFC727"/>
    <path d="M190.723 93.8129C190.007 88.359 189.894 82.8768 190.422 77.3945C191.147 82.8485 191.241 88.3307 190.723 93.8129Z" fill="#263238"/>
    <path d="M153.241 104.278C149.888 99.9168 147.062 95.2258 144.773 90.2146C148.126 94.5759 150.952 99.2763 153.241 104.278Z" fill="#263238"/>
    <path d="M126.019 132.066C120.932 129.965 116.137 127.318 111.653 124.125C116.74 126.226 121.535 128.882 126.019 132.066Z" fill="#263238"/>
    <path d="M116.335 169.754C110.881 170.47 105.398 170.583 99.916 170.055C105.37 169.33 110.852 169.236 116.335 169.754Z" fill="#263238"/>
    <path d="M126.791 207.235C122.429 210.588 117.738 213.414 112.727 215.703C117.088 212.349 121.789 209.524 126.791 207.235Z" fill="#263238"/>
    <path d="M256.982 205.888C262.069 207.988 266.863 210.635 271.347 213.828C266.26 211.728 261.466 209.072 256.982 205.888Z" fill="#263238"/>
    <path d="M266.666 168.209C272.12 167.493 277.602 167.38 283.084 167.908C277.63 168.633 272.148 168.727 266.666 168.209Z" fill="#263238"/>
    <path d="M256.209 130.728C260.571 127.375 265.262 124.549 270.273 122.26C265.912 125.614 261.211 128.44 256.209 130.728Z" fill="#263238"/>
    <path d="M228.412 103.496C230.512 98.4097 233.159 93.6151 236.353 89.1313C234.252 94.2179 231.596 99.0125 228.412 103.496Z" fill="#263238"/>
    <g opacity="0.5">
    <path d="M257.848 173.861C254.561 215.072 220.226 227.496 220.226 227.496C217.701 233.76 214.414 249.689 214.414 249.689H168.586C168.586 249.689 165.299 233.76 162.774 227.496C162.774 227.496 128.439 215.072 125.152 173.861C122.863 145.225 143.256 102.903 191.26 102.894H191.759C239.762 102.903 260.147 145.235 257.867 173.861H257.848Z" fill="#FFC727"/>
    </g>
    <path d="M252.187 174.068C249.182 211.756 217.777 223.126 217.777 223.126C215.469 228.853 212.454 249.689 212.454 249.689H170.536C170.536 249.689 167.531 228.853 165.214 223.126C165.214 223.126 133.808 211.766 130.804 174.068C128.712 147.882 147.364 109.167 191.26 109.158H191.712C235.618 109.158 254.26 147.882 252.168 174.068H252.187Z" fill="#FFE70F"/>
    <path d="M180.361 253.589L166.891 181.435" stroke="white" stroke-width="3" stroke-miterlimit="10"/>
    <path d="M202.658 253.579L216.109 181.425" stroke="white" stroke-width="3" stroke-miterlimit="10"/>
    <path d="M168.04 184.185C168.04 184.185 170.706 198.314 177.102 198.314C183.498 198.314 189.498 177.252 181.096 177.252C172.693 177.252 180.832 204.842 191.495 204.842C202.159 204.842 208.291 177.243 200.821 177.252C193.36 177.252 195.715 199.247 205.983 199.247C211.494 199.247 215.422 185.08 215.422 185.08" stroke="white" stroke-miterlimit="10"/>
    <path d="M220.207 249.746H162.793V281.339H220.207V249.746Z" fill="#455A64"/>
    <path d="M213.698 281.339C210.325 287.33 203.845 292.68 191.505 292.68C179.165 292.68 172.684 287.321 169.312 281.339H213.707H213.698Z" fill="#455A64"/>
    <path d="M213.698 281.339C212.728 283.053 211.522 284.702 209.977 286.2L170.451 283.167C170.028 282.564 169.651 281.961 169.302 281.339H213.698Z" fill="#37474F"/>
    <path d="M221.883 255.774L161.116 261.388V258.638L221.883 253.014V255.774Z" fill="#37474F"/>
    <path d="M221.883 264.12L161.116 269.734V266.974L221.883 261.36V264.12Z" fill="#37474F"/>
    <path d="M221.883 272.456L161.116 278.07V275.32L221.883 269.696V272.456Z" fill="#37474F"/>
    <g opacity="0.5">
    <path d="M139.611 164.234C141.712 164.583 144.444 153.722 156.124 141.147C161.314 135.561 181.002 128.572 179.579 122.128C178.157 115.685 160.599 122.307 151.763 132.547C137.548 149.012 137.671 163.905 139.611 164.234Z" fill="white"/>
    <path d="M243.182 166.495C247.054 166.495 247.063 160.476 243.182 160.476C239.301 160.476 239.301 166.495 243.182 166.495Z" fill="white"/>
    <path d="M224.239 211.747C226.358 213.358 236.626 203.881 241.261 192.568C245.104 183.177 245.763 171.308 243.182 170.621C240.592 169.933 238.924 186.22 235.816 192.22C231.888 199.793 221.978 210.023 224.239 211.747Z" fill="white"/>
    </g>
    <path d="M176.895 386.594C176.895 386.594 124.605 369.365 120.63 364.345C116.665 359.324 103.185 318.047 102.704 313.714C102.233 309.381 110.24 306.81 118.916 315.786C128.458 325.658 135.401 348.218 139.329 349.349C140.807 349.772 165.337 353.7 167.71 354.708C170.084 355.716 176.885 386.594 176.885 386.594H176.895Z" fill="#FDD9D1"/>
    <g opacity="0.1">
    <path d="M176.895 386.594C176.895 386.594 124.605 369.365 120.63 364.345C116.665 359.324 103.185 318.047 102.704 313.714C102.233 309.381 110.24 306.81 118.916 315.786C128.458 325.658 135.401 348.218 139.329 349.349C140.807 349.772 165.337 353.7 167.71 354.708C170.084 355.716 176.885 386.594 176.885 386.594H176.895Z" fill="black"/>
    </g>
    <path d="M185.269 406.78C185.269 406.78 114.498 358.721 111.05 353.324C107.602 347.926 97.2219 303.654 97.1842 299.293C97.1465 294.931 107.97 294.461 115.704 304.266C124.2 315.052 130.982 336.067 134.779 337.593C136.21 338.168 156.595 347.229 158.856 348.473C161.116 349.716 185.259 406.78 185.259 406.78H185.269Z" fill="#FDD9D1"/>
    <path d="M141.363 367.971C133.074 358.222 114.027 306.96 113.066 300.63C112.105 294.3 137.887 245.29 148.579 233.497C153.487 228.08 163.933 239.393 162.426 258.195C160.787 278.645 147.967 298.351 149.935 301.883C151.32 304.37 168.671 344.309 170.235 346.363C171.177 347.597 192.758 400.111 185.26 406.79C185.26 406.79 144.142 371.249 141.354 367.981L141.363 367.971Z" fill="#FDD9D1"/>
    <path d="M205.418 316.502C220.132 316.05 221.441 295.779 219.369 281.122C215.516 253.89 233.282 240.816 241.769 244.292C252.696 248.775 239.009 281.122 254.787 301.139C287.719 342.906 280.937 379.812 280.937 379.812C270.038 376.581 227.291 327.674 205.418 316.502Z" fill="#FDD9D1"/>
    <path d="M170.545 396.711C161.757 382.751 161.832 356.112 150.086 338.045C144.132 328.889 120.809 285.371 114.394 272.871C109.957 264.224 100.651 247.739 104.805 245.714C111.521 242.427 125.867 244.81 134.213 253.598C144.632 264.572 157.989 289.12 166.015 294.658C228.911 338.055 255.352 320.252 266.514 323.633L280.936 379.821L277.668 503.567H141.448L170.545 396.72V396.711Z" fill="#FDD9D1"/>
    <path opacity="0.1" d="M168.784 401.373C167.004 431.987 235.326 434.135 280.936 379.812L277.668 503.557H141.448L168.775 401.373H168.784Z" fill="#552014" fill-opacity="0.5"/>
    <path d="M111.945 268.18C118.671 279.144 125.057 290.344 131.397 301.525C136.465 309.136 142.898 315.739 149.172 322.399C154.268 327.702 159.468 332.911 164.743 338.045C161.945 335.652 159.214 333.175 156.501 330.688C147.109 321.853 137.539 312.989 130.116 302.335C123.607 291.173 117.371 279.907 111.936 268.18H111.945Z" fill="#263238"/>
    <path d="M113.339 301.874C119.405 315.071 124.351 328.795 129.211 342.472C129.315 342.793 129.447 343.132 129.616 343.424C132.518 348.473 136.804 352.787 140.628 357.176C142.606 359.409 144.65 361.566 146.666 363.77C141.08 358.825 135.636 353.653 130.888 347.87C129.758 346.4 128.458 344.818 127.78 342.981C123.107 330.321 117.738 314.76 113.33 301.874H113.339Z" fill="#263238"/>
    <path d="M133.271 252.656C137.379 255.473 140.572 259.42 143.464 263.423C146.299 267.483 153.863 278.391 155.775 282.969C149.832 275.131 139.715 260.117 133.271 252.666V252.656Z" fill="#263238"/>
    <path d="M149.935 457.043L281.737 459.313L279.844 503.557H136.653L149.935 457.043Z" fill="#EBEBEB"/>
    <path d="M137.162 472.237L285.194 475.016L285.816 503.557H131.162L137.162 472.237Z" fill="#FFC727"/>
    <path d="M304.505 416.67H92.5308V503.557H304.505V416.67Z" fill="#3A6BEA"/>
    <path opacity="0.2" d="M304.495 416.68H198.513V503.567H304.495V416.68Z" fill="black"/>
    <path d="M300.049 497.576C291.74 491.396 283.489 485.198 275.34 478.981L250.99 460.293L226.951 441.519C218.972 435.255 211.088 428.963 203.27 422.652C211.587 428.831 219.83 435.029 227.987 441.246L252.337 459.935L276.377 478.708C284.355 484.972 292.24 491.264 300.058 497.576H300.049Z" fill="#1F3F8F"/>
    <path d="M300.049 422.661C292.23 428.972 284.346 435.255 276.367 441.529L252.328 460.302L227.978 478.991C219.82 485.207 211.578 491.406 203.26 497.585C211.079 491.274 218.963 484.991 226.942 478.717L250.981 459.944L275.331 441.255C283.489 435.039 291.731 428.84 300.039 422.661H300.049Z" fill="#1F3F8F"/>
    <path opacity="0.1" d="M92.5308 503.557V500.251L198.513 492.677V503.557H92.5308Z" fill="black"/>
    <path d="M175.924 440.446H69.9419L92.5306 416.67H198.513L175.924 440.446Z" fill="#97B4FF"/>
    <path d="M221.092 440.446H327.074L304.495 416.67H198.513L221.092 440.446Z" fill="#6385DD"/>
    <path opacity="0.1" d="M221.092 440.446H327.074L304.495 416.67H198.513L221.092 440.446Z" fill="#6385DD"/>
    </g>
    <defs>
    <filter id="filter0_f_383_1500" x="23.3975" y="-4.72095" width="337.927" height="337.927" filterUnits="userSpaceOnUse" color-interpolation-filters="sRGB">
    <feFlood flood-opacity="0" result="BackgroundImageFix"/>
    <feBlend mode="normal" in="SourceGraphic" in2="BackgroundImageFix" result="shape"/>
    <feGaussianBlur stdDeviation="59" result="effect1_foregroundBlur_383_1500"/>
    </filter>
    <clipPath id="clip0_383_1500">
    <rect width="383" height="504" fill="white"/>
    </clipPath>
    </defs>
    </svg>
    