<svg width="465" height="309" viewBox="0 0 465 309" fill="none" xmlns="http://www.w3.org/2000/svg">
    <g clip-path="url(#clip0_366_1216)">
    <path d="M174.731 115.264C181.105 102.401 186.636 93.2572 200.554 91.5923C200.427 90.0186 200.351 88.4297 200.351 86.8223C200.351 57.0603 222.417 32.933 249.636 32.933C256.991 32.933 263.963 34.7076 270.232 37.8652C277.164 15.835 296.272 0 318.774 0C342.759 0 362.898 17.9845 368.537 42.2908C378.263 35.4236 389.848 31.4353 402.287 31.4353C436.69 31.4353 464.578 61.93 464.578 99.5453C464.578 104.955 463.998 110.217 462.907 115.264H174.731Z" fill="#E2EAFF"/>
    <path d="M440.157 146.219C439.922 146.292 439.697 146.38 439.479 146.478C438.209 144.367 436.644 142.491 434.855 140.891C434.992 140.695 435.122 140.49 435.237 140.274C436.781 137.368 435.673 133.763 432.761 132.222C429.851 130.682 426.241 131.789 424.697 134.695C424.582 134.911 424.486 135.133 424.4 135.356C422.069 134.775 419.636 134.535 417.172 134.67C417.129 134.435 417.077 134.199 417.004 133.964C416.038 130.82 412.701 129.054 409.552 130.02C406.402 130.986 404.634 134.319 405.6 137.463C405.672 137.697 405.76 137.92 405.858 138.14C403.744 139.41 401.864 140.972 400.261 142.758C400.065 142.621 399.861 142.491 399.645 142.376C396.735 140.836 393.124 141.944 391.581 144.85C390.037 147.756 391.145 151.361 394.056 152.903C394.273 153.017 394.496 153.112 394.718 153.198C394.138 155.527 393.896 157.956 394.031 160.415C393.796 160.457 393.56 160.509 393.325 160.58C390.176 161.546 388.407 164.879 389.373 168.023C390.339 171.167 393.676 172.934 396.826 171.968C397.061 171.895 397.286 171.807 397.503 171.709C398.773 173.82 400.337 175.696 402.127 177.297C401.991 177.493 401.861 177.697 401.746 177.913C400.202 180.819 401.31 184.424 404.222 185.966C407.131 187.506 410.742 186.398 412.286 183.492C412.401 183.276 412.497 183.055 412.583 182.832C414.914 183.413 417.347 183.652 419.811 183.517C419.853 183.752 419.906 183.988 419.978 184.223C420.944 187.367 424.282 189.133 427.431 188.168C430.581 187.202 432.349 183.869 431.383 180.724C431.31 180.49 431.223 180.267 431.125 180.047C433.239 178.778 435.119 177.216 436.721 175.429C436.917 175.566 437.122 175.696 437.338 175.811C440.248 177.351 443.858 176.243 445.402 173.337C446.946 170.431 445.838 166.826 442.926 165.285C442.71 165.17 442.487 165.075 442.264 164.989C442.847 162.661 443.087 160.231 442.952 157.772C443.188 157.73 443.423 157.678 443.658 157.607C446.807 156.641 448.575 153.308 447.609 150.164C446.643 147.02 443.306 145.254 440.157 146.219ZM421.743 169.67C415.895 171.463 409.698 168.184 407.903 162.345C406.108 156.506 409.394 150.318 415.241 148.523C421.09 146.728 427.286 150.009 429.081 155.847C430.876 161.686 427.59 167.875 421.743 169.67Z" fill="white"/>
    <path d="M425.683 188.806C422.973 188.806 420.46 187.055 419.624 184.336C419.582 184.201 419.544 184.061 419.511 183.909C417.251 184.004 415.001 183.791 412.809 183.274C412.747 183.418 412.683 183.549 412.619 183.673C410.982 186.756 407.138 187.934 404.051 186.3C402.555 185.508 401.457 184.183 400.961 182.565C400.464 180.949 400.628 179.237 401.42 177.744C401.486 177.619 401.558 177.494 401.643 177.363C399.984 175.84 398.544 174.099 397.355 172.182C397.21 172.24 397.071 172.289 396.938 172.329C393.597 173.354 390.046 171.475 389.02 168.138C388.524 166.522 388.686 164.81 389.48 163.316C390.272 161.821 391.601 160.726 393.219 160.229C393.352 160.189 393.494 160.151 393.646 160.116C393.552 157.864 393.766 155.616 394.283 153.424C394.141 153.364 394.009 153.299 393.884 153.234C392.388 152.442 391.29 151.115 390.794 149.499C390.297 147.883 390.461 146.171 391.253 144.678C392.89 141.595 396.733 140.414 399.821 142.049C399.946 142.115 400.072 142.189 400.202 142.272C401.727 140.615 403.472 139.175 405.392 137.988C405.335 137.844 405.287 137.706 405.245 137.573C404.749 135.957 404.912 134.244 405.704 132.75C406.497 131.256 407.826 130.16 409.444 129.663C412.784 128.639 416.336 130.52 417.361 133.854C417.403 133.989 417.44 134.13 417.474 134.282C419.732 134.187 421.981 134.4 424.175 134.916C424.238 134.775 424.3 134.641 424.366 134.518C426.003 131.435 429.846 130.256 432.934 131.891C434.43 132.683 435.528 134.01 436.024 135.626C436.521 137.242 436.357 138.954 435.565 140.446C435.499 140.57 435.426 140.696 435.342 140.828C437.002 142.351 438.441 144.092 439.63 146.008C439.775 145.951 439.913 145.904 440.047 145.862C443.387 144.837 446.939 146.718 447.964 150.052C448.461 151.668 448.297 153.381 447.505 154.875C446.713 156.369 445.384 157.465 443.766 157.961C443.632 158.002 443.49 158.039 443.338 158.075C443.433 160.327 443.219 162.576 442.702 164.766C442.845 164.829 442.977 164.891 443.1 164.957C444.597 165.749 445.694 167.076 446.191 168.692C446.687 170.308 446.524 172.02 445.732 173.513C444.095 176.596 440.251 177.775 437.164 176.142C437.039 176.076 436.912 176.002 436.781 175.919C435.254 177.577 433.511 179.016 431.591 180.201C431.648 180.345 431.696 180.481 431.738 180.618C432.234 182.234 432.071 183.946 431.278 185.441C430.486 186.935 429.157 188.031 427.539 188.527C426.921 188.716 426.296 188.807 425.682 188.807L425.683 188.806ZM419.813 183.149C419.992 183.149 420.147 183.278 420.179 183.457C420.223 183.705 420.276 183.921 420.335 184.118C421.24 187.062 424.373 188.72 427.322 187.816C428.749 187.379 429.921 186.411 430.62 185.093C431.319 183.774 431.464 182.264 431.025 180.838C430.964 180.64 430.888 180.439 430.782 180.203C430.706 180.03 430.77 179.83 430.931 179.732C432.988 178.497 434.842 176.966 436.441 175.183C436.566 175.043 436.777 175.019 436.931 175.125C437.139 175.269 437.328 175.387 437.51 175.483C440.234 176.925 443.626 175.885 445.071 173.163C445.77 171.846 445.914 170.335 445.477 168.91C445.039 167.483 444.07 166.313 442.749 165.614C442.567 165.518 442.369 165.43 442.128 165.337C441.952 165.269 441.854 165.082 441.9 164.9C442.479 162.578 442.707 160.187 442.577 157.793C442.567 157.605 442.697 157.438 442.882 157.406C443.137 157.36 443.347 157.311 443.544 157.251C444.973 156.813 446.144 155.846 446.844 154.527C447.544 153.21 447.689 151.699 447.25 150.274C446.345 147.331 443.21 145.671 440.263 146.576C440.067 146.637 439.859 146.716 439.628 146.819C439.456 146.897 439.253 146.832 439.157 146.67C437.921 144.615 436.389 142.765 434.602 141.167C434.462 141.042 434.437 140.831 434.545 140.678C434.69 140.47 434.806 140.281 434.903 140.1C435.602 138.783 435.745 137.272 435.308 135.847C434.871 134.42 433.901 133.25 432.581 132.551C429.856 131.109 426.464 132.149 425.02 134.871C424.923 135.052 424.832 135.254 424.741 135.491C424.673 135.666 424.484 135.762 424.304 135.719C421.978 135.139 419.583 134.913 417.187 135.045C416.994 135.063 416.832 134.923 416.8 134.739C416.756 134.491 416.706 134.275 416.645 134.079C415.74 131.136 412.605 129.478 409.658 130.381C408.231 130.818 407.059 131.786 406.36 133.105C405.661 134.422 405.515 135.933 405.954 137.36C406.015 137.556 406.093 137.763 406.198 137.995C406.274 138.167 406.211 138.368 406.049 138.466C403.99 139.702 402.136 141.232 400.537 143.015C400.412 143.155 400.201 143.178 400.047 143.072C399.839 142.929 399.652 142.812 399.468 142.714C396.743 141.272 393.352 142.312 391.907 145.034C391.208 146.351 391.064 147.862 391.501 149.288C391.939 150.714 392.908 151.884 394.229 152.584C394.411 152.68 394.614 152.771 394.85 152.86C395.026 152.928 395.124 153.115 395.078 153.298C394.499 155.621 394.271 158.012 394.401 160.405C394.411 160.592 394.281 160.759 394.095 160.791C393.842 160.837 393.631 160.886 393.433 160.947C392.005 161.384 390.834 162.352 390.133 163.67C389.434 164.987 389.289 166.499 389.728 167.925C390.633 170.869 393.768 172.527 396.715 171.623C396.912 171.563 397.115 171.485 397.35 171.38C397.52 171.304 397.723 171.367 397.819 171.529C399.057 173.584 400.589 175.436 402.374 177.032C402.514 177.157 402.54 177.368 402.431 177.523C402.286 177.731 402.17 177.918 402.073 178.101C401.374 179.418 401.229 180.929 401.666 182.354C402.104 183.781 403.073 184.951 404.394 185.65C407.118 187.094 410.511 186.052 411.955 183.33C412.053 183.148 412.141 182.95 412.233 182.71C412.301 182.535 412.489 182.438 412.671 182.482C414.995 183.061 417.388 183.288 419.788 183.158C419.794 183.158 419.801 183.158 419.808 183.158L419.813 183.149ZM418.497 170.531C413.601 170.531 409.058 167.367 407.549 162.455C406.652 159.535 406.946 156.442 408.378 153.742C409.81 151.044 412.21 149.063 415.133 148.166C421.166 146.316 427.585 149.711 429.438 155.738C430.334 158.657 430.041 161.751 428.608 164.45C427.176 167.149 424.776 169.129 421.853 170.026C420.737 170.369 419.609 170.531 418.497 170.531ZM418.491 148.406C417.452 148.406 416.396 148.558 415.353 148.879C412.62 149.718 410.376 151.569 409.037 154.091C407.697 156.614 407.422 159.506 408.261 162.235C409.992 167.87 415.991 171.044 421.635 169.313C424.368 168.474 426.612 166.624 427.951 164.101C429.291 161.578 429.566 158.686 428.727 155.957C427.315 151.366 423.067 148.406 418.491 148.406Z" fill="black"/>
    <path d="M371.453 116.245C371.169 116.331 370.899 116.439 370.636 116.555C369.104 114.009 367.216 111.747 365.057 109.817C365.223 109.58 365.378 109.335 365.518 109.074C367.38 105.568 366.044 101.22 362.533 99.3612C359.023 97.5038 354.668 98.8395 352.807 102.345C352.668 102.607 352.552 102.873 352.449 103.142C349.637 102.441 346.701 102.152 343.731 102.316C343.68 102.032 343.618 101.749 343.53 101.465C342.365 97.6727 338.34 95.5418 334.542 96.7086C330.744 97.8736 328.609 101.892 329.776 105.685C329.862 105.967 329.97 106.237 330.088 106.5C327.538 108.032 325.272 109.916 323.338 112.071C323.102 111.905 322.855 111.75 322.593 111.611C319.084 109.754 314.728 111.09 312.867 114.595C311.006 118.1 312.342 122.448 315.853 124.307C316.115 124.446 316.382 124.561 316.652 124.664C315.951 127.472 315.661 130.403 315.823 133.37C315.539 133.42 315.254 133.483 314.972 133.571C311.173 134.736 309.039 138.755 310.206 142.547C311.371 146.339 315.396 148.47 319.194 147.304C319.477 147.217 319.748 147.109 320.011 146.993C321.543 149.539 323.429 151.802 325.589 153.733C325.424 153.97 325.268 154.215 325.128 154.476C323.267 157.982 324.603 162.33 328.114 164.189C331.624 166.046 335.979 164.711 337.84 161.205C337.979 160.943 338.095 160.677 338.198 160.408C341.01 161.109 343.945 161.398 346.916 161.234C346.967 161.518 347.029 161.801 347.117 162.085C348.282 165.877 352.307 168.008 356.105 166.841C359.903 165.676 362.038 161.658 360.871 157.865C360.785 157.583 360.677 157.313 360.558 157.05C363.109 155.518 365.375 153.634 367.309 151.479C367.545 151.645 367.792 151.8 368.053 151.939C371.563 153.796 375.918 152.46 377.779 148.955C379.64 145.45 378.305 141.102 374.794 139.242C374.532 139.104 374.265 138.989 373.995 138.886C374.697 136.078 374.986 133.147 374.824 130.18C375.108 130.13 375.391 130.067 375.675 129.979C379.473 128.814 381.608 124.795 380.441 121.003C379.276 117.211 375.251 115.08 371.453 116.246V116.245ZM349.243 144.529C342.189 146.694 334.716 142.738 332.551 135.695C330.386 128.652 334.348 121.187 341.402 119.024C348.456 116.859 355.929 120.816 358.094 127.858C360.259 134.901 356.297 142.366 349.243 144.529Z" fill="#5479F7"/>
    <path d="M345.104 174.528C321.361 174.528 302.042 155.214 302.042 131.474C302.042 119.973 306.521 109.161 314.654 101.031C314.799 100.886 315.036 100.886 315.181 101.031C315.326 101.176 315.326 101.413 315.181 101.558C307.188 109.55 302.787 120.174 302.787 131.475C302.787 154.804 321.769 173.785 345.104 173.785C358.155 173.785 370.278 167.898 378.364 157.636C378.49 157.475 378.725 157.446 378.887 157.573C379.049 157.7 379.076 157.934 378.95 158.097C370.722 168.54 358.385 174.529 345.104 174.529V174.528Z" fill="black"/>
    <path d="M345.104 178.268C323.644 178.268 304.984 163.76 299.728 142.986C299.678 142.787 299.799 142.584 299.999 142.533C300.196 142.483 300.4 142.604 300.451 142.804C305.624 163.247 323.985 177.523 345.106 177.523C345.312 177.523 345.477 177.69 345.477 177.895C345.477 178.099 345.31 178.266 345.106 178.266L345.104 178.268Z" fill="black"/>
    <path d="M300.09 143.266H277.617C277.411 143.266 277.245 143.099 277.245 142.895C277.245 142.69 277.412 142.523 277.617 142.523H300.09C300.296 142.523 300.463 142.69 300.463 142.895C300.463 143.099 300.296 143.266 300.09 143.266Z" fill="black"/>
    <path d="M431.807 81.0289C431.569 81.1015 431.341 81.1927 431.12 81.2906C429.831 79.1496 428.245 77.2466 426.43 75.6239C426.568 75.4247 426.7 75.2187 426.816 74.9992C428.382 72.051 427.257 68.3954 424.307 66.8335C421.355 65.2716 417.695 66.3945 416.13 69.3426C416.013 69.5621 415.915 69.7867 415.829 70.013C413.465 69.4237 410.997 69.1822 408.499 69.319C408.457 69.0809 408.403 68.8411 408.33 68.6047C407.351 65.4168 403.967 63.6253 400.773 64.6046C397.579 65.584 395.786 68.9627 396.765 72.1523C396.838 72.3904 396.929 72.6167 397.027 72.8379C394.882 74.1245 392.977 75.7101 391.351 77.5218C391.152 77.3834 390.946 77.2517 390.726 77.1352C387.774 75.5733 384.114 76.6962 382.549 79.6443C380.983 82.5925 382.108 86.2481 385.058 87.81C385.278 87.9265 385.503 88.0228 385.729 88.1106C385.139 90.4711 384.895 92.9364 385.031 95.4303C384.793 95.4725 384.553 95.5266 384.315 95.5992C381.122 96.5785 379.328 99.9573 380.308 103.147C381.287 106.335 384.672 108.126 387.865 107.147C388.103 107.074 388.331 106.983 388.553 106.885C389.841 109.026 391.427 110.929 393.242 112.552C393.104 112.751 392.972 112.957 392.856 113.177C391.29 116.125 392.415 119.781 395.365 121.342C398.317 122.904 401.977 121.781 403.543 118.833C403.659 118.614 403.757 118.389 403.843 118.163C406.208 118.752 408.675 118.994 411.173 118.857C411.215 119.095 411.269 119.335 411.342 119.571C412.321 122.759 415.706 124.551 418.899 123.571C422.093 122.592 423.886 119.213 422.907 116.024C422.834 115.785 422.743 115.559 422.645 115.338C424.79 114.051 426.695 112.466 428.321 110.654C428.52 110.793 428.727 110.924 428.946 111.041C431.898 112.603 435.558 111.48 437.123 108.532C438.689 105.583 437.564 101.928 434.614 100.366C434.394 100.249 434.17 100.153 433.943 100.065C434.533 97.7048 434.778 95.2395 434.641 92.7456C434.879 92.7034 435.119 92.6493 435.357 92.5767C438.55 91.5974 440.344 88.2186 439.364 85.029C438.385 81.8394 435.001 80.0496 431.807 81.0289ZM413.134 104.81C407.202 106.629 400.92 103.304 399.099 97.3823C397.279 91.4606 400.611 85.1844 406.542 83.3658C412.473 81.5473 418.756 84.872 420.576 90.7936C422.397 96.7153 419.065 102.992 413.134 104.81Z" fill="#5479F7"/>
    <path d="M443.726 111.039C443.645 111.039 443.561 111.02 443.483 110.983C443.206 110.848 443.09 110.514 443.225 110.237C447.327 101.788 448.065 92.1884 445.305 83.2088C441.683 71.4263 432.462 62.2407 420.64 58.6408C420.344 58.5513 420.179 58.2389 420.268 57.9434C420.358 57.6479 420.67 57.4807 420.966 57.5719C433.144 61.2816 442.642 70.7424 446.373 82.8812C449.217 92.1327 448.455 102.021 444.23 110.725C444.133 110.924 443.934 111.039 443.726 111.039Z" fill="white"/>
    <path d="M450.597 103.517C450.558 103.517 450.518 103.513 450.477 103.503C450.175 103.437 449.986 103.138 450.052 102.838C451.558 95.9757 451.256 88.7759 449.179 82.0184C443.523 63.6185 426.162 51.7263 406.963 53.0855C406.659 53.1142 406.389 52.8761 406.367 52.5688C406.345 52.2615 406.576 51.9947 406.883 51.9728C416.256 51.3075 425.727 53.8521 433.554 59.1406C441.498 64.5084 447.426 72.5171 450.248 81.6925C452.382 88.634 452.691 96.0298 451.144 103.079C451.087 103.341 450.856 103.518 450.599 103.518L450.597 103.517Z" fill="white"/>
    <path d="M170.167 243.396L154.812 296.003L44.4076 285.472L47.13 253.312L25.3711 252.906L45.5206 201.517C52.129 184.662 66.734 172.235 84.4313 168.408C108.609 163.182 142.568 155.844 162.697 151.51C171.378 149.64 180.376 152.72 186.089 159.515C196.945 172.424 214.092 192.828 223.14 207.792L174.512 249.481L170.165 243.397L170.167 243.396Z" fill="#5479F7"/>
    <path d="M82.8371 254.376C82.7915 254.376 82.7442 254.368 82.6986 254.349C82.5078 254.273 82.4149 254.055 82.4909 253.865L91.7322 230.83C91.8082 230.639 92.026 230.544 92.2169 230.622C92.4077 230.698 92.5006 230.916 92.4246 231.107L83.1833 254.142C83.1259 254.287 82.9857 254.375 82.8371 254.375V254.376Z" fill="black"/>
    <path d="M284.671 180.799C286.793 170.426 278.323 172.755 278.323 172.755C279.781 164.244 271.451 163.529 271.451 163.529C280.368 152.92 282.788 142.333 277.355 142.918C273.164 143.371 254.308 163.267 245.916 172.331C243.259 175.2 241.027 178.431 239.284 181.93L222.703 215.221L219.153 211.211L176.674 247.629C186.78 261.698 199 271.327 209.736 277.756C224.372 286.519 243.339 281.101 251.202 265.963C265.637 238.177 278.169 201.196 278.169 201.196C284.749 201.929 285.428 191.661 285.428 191.661C290.687 182.025 284.671 180.799 284.671 180.799Z" fill="white"/>
    <path d="M224.843 282.345C219.514 282.345 214.267 280.903 209.545 278.075C196.202 270.085 185.042 259.915 176.371 247.845C176.252 247.678 176.29 247.445 176.458 247.325C176.623 247.205 176.856 247.244 176.978 247.411C185.587 259.396 196.673 269.499 209.929 277.435C216.902 281.61 225.047 282.689 232.868 280.474C240.714 278.252 247.108 273.036 250.873 265.791C265.128 238.347 277.691 201.446 277.818 201.076C277.874 200.911 278.038 200.808 278.211 200.826C279.571 200.978 280.765 200.632 281.761 199.798C284.646 197.385 285.053 191.693 285.056 191.636C285.06 191.582 285.075 191.529 285.1 191.482C287.09 187.838 287.686 184.922 286.825 183.051C286.112 181.501 284.656 181.177 284.595 181.164C284.394 181.121 284.264 180.925 284.306 180.724C284.974 177.464 284.644 175.188 283.33 173.959C281.538 172.284 278.453 173.106 278.421 173.114C278.299 173.148 278.166 173.118 278.073 173.032C277.978 172.945 277.935 172.819 277.956 172.692C278.375 170.244 277.997 168.238 276.832 166.725C274.912 164.234 271.454 163.902 271.419 163.898C271.281 163.887 271.161 163.799 271.107 163.67C271.054 163.542 271.076 163.395 271.166 163.289C278.154 154.974 280.929 146.917 279.492 144.222C279.098 143.484 278.414 143.178 277.394 143.288C274.555 143.594 262.89 154.546 246.188 172.582C243.553 175.428 241.343 178.627 239.615 182.096L223.034 215.387C222.978 215.498 222.872 215.574 222.748 215.589C222.625 215.608 222.504 215.56 222.421 215.468L218.873 211.457C218.736 211.304 218.751 211.067 218.905 210.932C219.058 210.797 219.295 210.811 219.43 210.964L222.613 214.561L238.948 181.765C240.708 178.234 242.959 174.975 245.641 172.078C255.672 161.244 273.128 142.999 277.313 142.549C278.98 142.368 279.774 143.17 280.147 143.871C281.915 147.19 278.419 155.625 272.157 163.258C273.343 163.486 275.813 164.192 277.414 166.266C278.627 167.834 279.081 169.855 278.769 172.28C279.836 172.096 282.221 171.904 283.837 173.415C285.305 174.788 285.728 177.184 285.1 180.54C285.685 180.75 286.841 181.322 287.493 182.725C288.475 184.836 287.902 187.879 285.791 191.769C285.73 192.532 285.198 197.892 282.236 200.37C281.152 201.277 279.875 201.688 278.424 201.595C277.237 205.056 265.157 239.904 251.53 266.137C247.669 273.568 241.113 278.916 233.067 281.193C230.343 281.965 227.58 282.347 224.839 282.347L224.843 282.345Z" fill="black"/>
    <path d="M214.725 233.697C214.676 233.697 214.627 233.687 214.58 233.668C214.391 233.589 214.301 233.369 214.382 233.18L221.607 216.06C221.687 215.871 221.906 215.782 222.095 215.863C222.285 215.942 222.374 216.162 222.293 216.351L215.068 233.471C215.007 233.612 214.871 233.699 214.725 233.699V233.697Z" fill="black"/>
    <path d="M258.567 179.534C257.43 179.534 256.292 179.46 255.16 179.311C254.956 179.284 254.812 179.097 254.839 178.894C254.866 178.69 255.052 178.545 255.256 178.573C259.666 179.151 264.167 178.563 268.277 176.87C269.845 176.223 272.508 174.783 272.721 172.397C272.859 170.835 271.78 169.136 270.093 168.267C268.429 167.409 266.472 167.326 264.775 167.36C259.399 167.464 254.01 168.78 249.19 171.164C249.004 171.255 248.781 171.179 248.692 170.995C248.601 170.811 248.677 170.588 248.861 170.497C253.777 168.066 259.276 166.723 264.761 166.615C266.548 166.581 268.624 166.671 270.436 167.605C272.082 168.454 273.658 170.286 273.464 172.463C273.28 174.521 271.54 176.331 268.563 177.558C265.388 178.867 261.986 179.536 258.568 179.536L258.567 179.534Z" fill="black"/>
    <path d="M262.76 191.484C261.705 191.484 260.756 191.072 260.19 190.356C259.489 189.471 259.467 188.267 259.513 187.438C259.686 184.218 260.972 181.125 263.133 178.732C263.272 178.58 263.507 178.567 263.659 178.705C263.811 178.843 263.824 179.078 263.686 179.23C261.639 181.498 260.421 184.427 260.256 187.479C260.217 188.186 260.23 189.208 260.774 189.895C261.225 190.466 262.059 190.786 262.959 190.734C263.848 190.682 264.723 190.302 265.461 189.937C271.703 186.856 276.43 180.701 277.798 173.878C277.838 173.675 278.034 173.543 278.235 173.585C278.438 173.626 278.568 173.822 278.527 174.023C277.114 181.069 272.233 187.421 265.79 190.604C264.986 191.001 264.025 191.416 263.003 191.475C262.922 191.48 262.841 191.482 262.762 191.482L262.76 191.484Z" fill="black"/>
    <path d="M271.164 194.189C270.86 194.189 270.561 194.165 270.267 194.118C269.08 193.929 267.952 193.23 267.246 192.247C266.677 191.453 266.445 190.54 266.596 189.672C266.629 189.469 266.82 189.334 267.026 189.368C267.229 189.402 267.366 189.594 267.33 189.799C267.183 190.656 267.533 191.369 267.852 191.815C268.435 192.627 269.404 193.228 270.385 193.383C271.919 193.626 273.631 193.138 275.621 191.891C279.471 189.478 282.417 185.787 283.916 181.496C283.984 181.302 284.197 181.201 284.391 181.268C284.585 181.336 284.688 181.548 284.619 181.743C283.063 186.19 280.008 190.018 276.016 192.522C274.236 193.638 272.638 194.189 271.166 194.189H271.164Z" fill="black"/>
    <path d="M276.202 197.824C275.293 197.824 274.523 197.623 273.905 197.225C272.914 196.585 272.236 195.165 272.873 193.988C272.971 193.807 273.196 193.738 273.378 193.838C273.559 193.936 273.626 194.16 273.528 194.342C273.115 195.109 273.608 196.147 274.31 196.6C274.996 197.042 275.943 197.181 277.134 197.009C280.125 196.58 282.901 194.543 284.212 191.82C284.301 191.636 284.524 191.556 284.708 191.646C284.894 191.735 284.972 191.958 284.882 192.142C283.447 195.128 280.518 197.274 277.24 197.745C276.877 197.797 276.531 197.822 276.203 197.822L276.202 197.824Z" fill="black"/>
    <path d="M278.838 201.573C277.884 201.573 276.94 201.078 276.405 200.288C275.844 199.459 275.75 198.337 276.165 197.429C276.251 197.243 276.471 197.161 276.658 197.245C276.846 197.331 276.927 197.551 276.842 197.738C276.533 198.415 276.602 199.253 277.021 199.869C277.438 200.485 278.197 200.867 278.935 200.825C279.134 200.811 279.315 200.973 279.325 201.179C279.335 201.385 279.176 201.559 278.97 201.569C278.926 201.571 278.881 201.573 278.837 201.573H278.838Z" fill="black"/>
    <path d="M174.514 308.26H44.7504C30.1892 308.84 15.5639 291.887 19.2811 275.66C20.421 271.265 21.2705 267.741 21.8312 265.357C22.8377 261.081 23.5859 257.623 25.3727 252.904C25.626 252.235 25.8439 251.688 25.9942 251.32C30.8124 251.205 36.0782 251.396 41.7307 251.86C50.771 252.603 71.8156 254.471 81.1886 258.248L76.3738 272.288L129.106 273.055C140.666 273.055 150.524 280.379 159.638 287.488C165.821 292.311 171.659 299.046 174.515 308.26H174.514Z" fill="white"/>
    <path d="M174.514 308.816L46.4729 308.632C37.8954 308.632 29.9105 304.785 24.5654 298.079C19.2202 291.372 17.251 282.732 19.1662 274.372L19.4854 273.105C21.0611 266.871 23.2177 258.334 25.6412 251.2C25.707 251.006 25.9198 250.901 26.114 250.967C26.3083 251.033 26.413 251.246 26.3471 251.44C23.9338 258.547 21.7805 267.067 20.2082 273.289L19.8907 274.547C18.0296 282.676 19.9447 291.088 25.148 297.616C30.3513 304.144 38.125 307.889 46.4729 307.889L173.983 308.071C171.754 302.015 167.289 293.604 158.546 286.941L157.227 285.936C157.063 285.811 157.031 285.578 157.156 285.415C157.279 285.251 157.514 285.219 157.678 285.344L158.997 286.35C168.128 293.309 172.664 302.138 174.863 308.321C174.904 308.436 174.887 308.563 174.816 308.661C174.745 308.759 174.632 308.818 174.512 308.818L174.514 308.816Z" fill="black"/>
    <path d="M160.016 303.669C159.869 303.669 159.731 303.582 159.672 303.438C157.02 296.925 151.974 292.035 145.077 289.302C144.886 289.226 144.793 289.01 144.867 288.819C144.943 288.628 145.16 288.535 145.35 288.609C152.44 291.421 157.63 296.451 160.359 303.158C160.437 303.349 160.346 303.565 160.155 303.642C160.109 303.661 160.062 303.669 160.015 303.669H160.016Z" fill="black"/>
    <path d="M144.364 303.669C144.222 303.669 144.086 303.587 144.023 303.448C141.573 297.95 136.702 293.525 130.995 291.612C130.801 291.546 130.695 291.335 130.761 291.14C130.827 290.946 131.038 290.842 131.232 290.906C137.133 292.885 142.169 297.461 144.702 303.146C144.786 303.333 144.702 303.554 144.513 303.637C144.464 303.659 144.412 303.669 144.361 303.669H144.364Z" fill="black"/>
    <path d="M279.622 309H124.18C122.033 309 120.295 307.261 120.295 305.116V304.203C120.295 299.983 123.717 296.562 127.937 296.562H290.825L289.518 301.42C288.314 305.893 284.258 309.002 279.623 309.002L279.622 309Z" fill="black"/>
    <path d="M284.164 303.369H188.041C183.935 303.369 180.921 299.516 181.909 295.532L200.075 222.257C200.774 219.439 203.304 217.46 206.207 217.46H302.331C306.436 217.46 309.451 221.313 308.463 225.296L290.296 298.572C289.597 301.39 287.067 303.369 284.164 303.369Z" fill="black"/>
    <path d="M284.164 303.554H188.041C186.026 303.554 184.16 302.644 182.919 301.059C181.677 299.473 181.243 297.442 181.728 295.487L199.895 222.212C200.616 219.304 203.212 217.273 206.208 217.273H302.331C304.346 217.273 306.212 218.183 307.453 219.768C308.695 221.354 309.129 223.385 308.644 225.34L290.477 298.616C289.756 301.523 287.16 303.554 284.164 303.554ZM206.208 217.646C203.384 217.646 200.935 219.561 200.256 222.301L182.089 295.576C181.633 297.42 182.042 299.333 183.213 300.829C184.383 302.325 186.143 303.183 188.043 303.183H284.166C286.991 303.183 289.439 301.268 290.117 298.528L308.284 225.253C308.74 223.409 308.331 221.496 307.161 220C305.991 218.505 304.231 217.647 302.331 217.647H206.208V217.646Z" fill="black"/>
    <path d="M254.71 245.734C254.71 247.487 253.29 248.907 251.537 248.907C249.784 248.907 248.363 247.487 248.363 245.734C248.363 243.982 249.784 242.562 251.537 242.562C253.29 242.562 254.71 243.982 254.71 245.734Z" fill="#E2EAFF"/>
    <path d="M121.52 131.406L107.7 163.008L96.5908 165.778C96.5908 165.778 119.883 180.838 132.712 177.528C145.244 174.295 148.343 162.45 146.379 155.025L137.726 156.656L141.345 144.116C141.345 144.116 135.11 123.615 121.518 131.406H121.52Z" fill="white"/>
    <path d="M96.5906 166.151C96.4234 166.151 96.2714 166.038 96.2292 165.869C96.1802 165.67 96.3001 165.467 96.5011 165.418L107.433 162.693L121.178 131.259C121.21 131.187 121.264 131.126 121.334 131.085C124.735 129.135 127.991 128.753 131.012 129.952C138.224 132.811 141.564 143.553 141.703 144.009C141.723 144.078 141.725 144.151 141.703 144.22L138.251 156.18L146.31 154.66C146.513 154.623 146.707 154.755 146.746 154.958C146.784 155.16 146.651 155.354 146.448 155.393L137.795 157.024C137.668 157.048 137.536 157.004 137.45 156.91C137.364 156.813 137.332 156.68 137.368 156.555L140.956 144.122C140.593 143.006 137.251 133.225 130.735 130.643C127.969 129.547 124.966 129.891 121.81 131.671L108.041 163.16C107.995 163.267 107.902 163.344 107.789 163.373L96.6801 166.142C96.6497 166.149 96.6193 166.153 96.5889 166.153L96.5906 166.151Z" fill="black"/>
    <path d="M134.542 166.151C134.503 166.151 134.465 166.146 134.426 166.132C134.23 166.068 134.123 165.859 134.188 165.663L136.721 157.929C136.785 157.735 136.994 157.625 137.19 157.691C137.386 157.755 137.493 157.965 137.429 158.161L134.895 165.894C134.845 166.051 134.698 166.151 134.541 166.151H134.542Z" fill="black"/>
    <path d="M117.414 121.793C117.414 121.793 106.221 105.632 108.235 101.916C110.25 98.1995 114.533 99.7276 114.533 99.7276C114.533 99.7276 131.139 69.8982 139.453 81.7077C139.453 81.7077 144.501 72.7383 151.838 77.4138C159.174 82.091 157.13 87.9029 152.429 91.773C152.429 91.773 157.164 100.552 153.072 104.998C148.978 109.443 153.66 120.025 156.815 121.275C156.815 121.275 166.257 141.954 157.081 147.822C147.908 153.69 129.871 154.691 124.968 131.808L117.414 121.793Z" fill="black"/>
    <path d="M123.168 123.142L124.968 131.808C124.968 131.808 116.026 134.422 112.498 127.377C109.262 120.915 115.033 114.933 121.153 119.835C122.19 120.665 122.898 121.842 123.168 123.142Z" fill="white"/>
    <path d="M121.246 132.637C118.259 132.637 114.271 131.75 112.165 127.543C110.535 124.289 111.025 120.699 113.358 118.815C115.07 117.43 118.081 116.895 121.388 119.542C122.482 120.419 123.244 121.67 123.534 123.065L125.335 131.73C125.374 131.921 125.26 132.108 125.075 132.163C125.036 132.174 123.401 132.635 121.248 132.635L121.246 132.637ZM116.634 118.413C115.604 118.413 114.639 118.737 113.825 119.394C112.143 120.753 111.113 123.779 112.831 127.208C115.803 133.145 122.908 131.904 124.531 131.533L122.803 123.217C122.548 121.991 121.879 120.892 120.92 120.123C119.503 118.989 118.009 118.411 116.632 118.411L116.634 118.413Z" fill="black"/>
    <path d="M122.421 129.196C122.294 129.196 122.171 129.132 122.102 129.015C120.979 127.149 118.848 125.935 116.671 125.92C116.465 125.92 116.299 125.751 116.301 125.545C116.301 125.341 116.468 125.175 116.672 125.175H116.676C119.106 125.192 121.487 126.55 122.74 128.632C122.847 128.807 122.789 129.037 122.614 129.143C122.553 129.181 122.487 129.197 122.423 129.197L122.421 129.196Z" fill="black"/>
    <path d="M153.095 101.845C153.095 101.845 140.098 103.478 135.089 106.982C132.475 108.81 131.311 112.093 132.187 115.161C133.069 118.244 134.248 122.004 135.454 124.774C136.278 126.663 138.288 127.744 140.318 127.389C144.479 126.661 151.837 124.936 156.812 121.275L153.094 101.845H153.095Z" fill="white"/>
    <path d="M139.541 127.828C137.643 127.828 135.893 126.714 135.113 124.922C133.858 122.04 132.635 118.079 131.83 115.264C130.909 112.045 132.134 108.596 134.875 106.678C139.902 103.162 152.514 101.543 153.048 101.475C153.251 101.452 153.423 101.582 153.46 101.774L157.179 121.204C157.206 121.344 157.15 121.489 157.034 121.574C151.957 125.307 144.423 127.05 140.384 127.754C140.102 127.803 139.819 127.826 139.541 127.826V127.828ZM152.796 102.26C150.706 102.549 139.728 104.192 135.304 107.287C132.823 109.023 131.715 112.147 132.547 115.059C133.346 117.852 134.559 121.78 135.797 124.625C136.553 126.362 138.386 127.349 140.255 127.021C144.18 126.335 151.452 124.66 156.404 121.111L152.796 102.26Z" fill="black"/>
    <path d="M37.5239 184.102C37.3178 184.102 37.1523 183.934 37.1523 183.73V18.106C37.1523 17.9 37.3195 17.7346 37.5239 17.7346H249.972C250.178 17.7346 250.344 17.9017 250.344 18.106V28.0802C250.344 28.2861 250.177 28.4516 249.972 28.4516C249.768 28.4516 249.599 28.2845 249.599 28.0802V18.4775H37.8954V183.728C37.8954 183.934 37.7282 184.1 37.5239 184.1V184.102Z" fill="black"/>
    <path d="M150.656 38.88C161.395 38.88 170.101 30.1764 170.101 19.44C170.101 8.70358 161.395 0 150.656 0C139.916 0 131.21 8.70358 131.21 19.44C131.21 30.1764 139.916 38.88 150.656 38.88Z" fill="#5479F7"/>
    <path d="M149.521 27.7425C149.382 27.7425 149.249 27.6918 149.146 27.5989L141.558 20.7435C141.33 20.5358 141.311 20.1829 141.517 19.955C141.725 19.727 142.078 19.7085 142.306 19.9145L149.424 26.3461L158.921 12.7754C159.098 12.5221 159.444 12.4613 159.699 12.6386C159.953 12.8159 160.013 13.1638 159.836 13.417L149.977 27.5061C149.885 27.6378 149.74 27.7222 149.581 27.7408C149.561 27.7442 149.539 27.7442 149.519 27.7442L149.521 27.7425Z" fill="white"/>
    <path d="M74.0808 45.3453H0.967773V87.6614H74.0808V45.3453Z" fill="white"/>
    <path d="M74.0688 88.0532L0.957481 88.0143C0.859529 88.0143 0.763265 87.9755 0.694023 87.9046C0.624781 87.8354 0.585938 87.7391 0.585938 87.6412L0.607892 45.3251C0.607892 45.2271 0.646736 45.1309 0.717667 45.0617C0.786909 44.9924 0.881483 44.9519 0.981125 44.9519L74.0941 44.9907C74.3002 44.9907 74.4657 45.1579 74.4657 45.3639L74.4437 87.68C74.4437 87.886 74.2765 88.0515 74.0722 88.0515L74.0688 88.0532ZM1.32902 87.2714L73.6973 87.3085L73.7192 45.7371L1.35267 45.6999L1.33071 87.2714H1.32902Z" fill="black"/>
    <path d="M65.4522 58.1781L8.12984 58.1477C7.92381 58.1477 7.7583 57.9806 7.7583 57.7746C7.7583 57.5686 7.9255 57.4031 8.12984 57.4031L65.4522 57.4335C65.6583 57.4335 65.8238 57.6006 65.8238 57.8066C65.8238 58.0126 65.6566 58.1781 65.4522 58.1781Z" fill="black"/>
    <path d="M65.4474 66.229L8.12496 66.1986C7.91892 66.1986 7.75342 66.0315 7.75342 65.8255C7.75342 65.6195 7.92061 65.454 8.12496 65.454L65.4474 65.4844C65.6534 65.4844 65.8189 65.6515 65.8189 65.8575C65.8189 66.0635 65.6517 66.229 65.4474 66.229Z" fill="black"/>
    <path d="M65.442 74.2799L8.11959 74.2495C7.91355 74.2495 7.74805 74.0823 7.74805 73.8763C7.74805 73.6703 7.91524 73.5049 8.11959 73.5049L65.442 73.5352C65.648 73.5352 65.8135 73.7024 65.8135 73.9084C65.8135 74.1144 65.6463 74.2799 65.442 74.2799Z" fill="black"/>
    <path d="M19.0854 60.7109C20.6795 60.7109 21.9717 59.4106 21.9717 57.8066C21.9717 56.2027 20.6795 54.9024 19.0854 54.9024C17.4914 54.9024 16.1992 56.2027 16.1992 57.8066C16.1992 59.4106 17.4914 60.7109 19.0854 60.7109Z" fill="white"/>
    <path d="M19.082 61.0824C17.2851 61.0824 15.8242 59.6117 15.8242 57.805C15.8242 55.9982 17.2867 54.5309 19.0837 54.5309C20.8806 54.5309 22.3414 56.0016 22.3414 57.8083C22.3414 58.683 22.002 59.5053 21.3855 60.1233C20.7708 60.7413 19.9517 61.0824 19.082 61.0824ZM19.0854 55.2739C17.6988 55.2739 16.5724 56.4086 16.5707 57.805C16.5707 59.2014 17.6971 60.3377 19.0837 60.3377H19.0854C19.7558 60.3377 20.3858 60.076 20.8603 59.5982C21.3366 59.1203 21.5983 58.4837 21.5983 57.8067C21.5983 56.4102 20.4719 55.2739 19.0854 55.2739Z" fill="black"/>
    <path d="M34.7661 68.7702C36.3601 68.7702 37.6523 67.4699 37.6523 65.866C37.6523 64.262 36.3601 62.9617 34.7661 62.9617C33.1721 62.9617 31.8799 64.262 31.8799 65.866C31.8799 67.4699 33.1721 68.7702 34.7661 68.7702Z" fill="#5479F7"/>
    <path d="M57.3057 76.7806C58.8997 76.7806 60.1919 75.4803 60.1919 73.8763C60.1919 72.2724 58.8997 70.9721 57.3057 70.9721C55.7116 70.9721 54.4194 72.2724 54.4194 73.8763C54.4194 75.4803 55.7116 76.7806 57.3057 76.7806Z" fill="white"/>
    <path d="M57.3056 77.1537C55.5087 77.1537 54.0462 75.6814 54.0479 73.8746C54.0479 73 54.3873 72.1777 55.002 71.5597C55.6185 70.9417 56.4359 70.6006 57.3056 70.6006C59.1025 70.6006 60.5634 72.073 60.5634 73.878C60.5634 74.7527 60.2239 75.575 59.6092 76.193C58.9928 76.811 58.1754 77.1521 57.3056 77.1521V77.1537ZM57.3056 71.3452C56.6351 71.3452 56.0035 71.6086 55.529 72.0848C55.0527 72.5627 54.7909 73.1992 54.7909 73.8763C54.7909 75.2727 55.9174 76.4091 57.3039 76.4091C57.9744 76.4091 58.606 76.1457 59.0806 75.6695C59.5568 75.1917 59.8186 74.5551 59.8186 73.8797C59.8186 72.4833 58.6921 71.3469 57.3056 71.3469V71.3452Z" fill="black"/>
    <path d="M430.448 272.727C433.658 272.727 436.261 270.125 436.261 266.915C436.261 263.705 433.658 261.103 430.448 261.103C427.237 261.103 424.635 263.705 424.635 266.915C424.635 270.125 427.237 272.727 430.448 272.727Z" fill="#E2EAFF"/>
    <path d="M413.483 272.727C416.693 272.727 419.296 270.125 419.296 266.915C419.296 263.705 416.693 261.103 413.483 261.103C410.272 261.103 407.67 263.705 407.67 266.915C407.67 270.125 410.272 272.727 413.483 272.727Z" fill="#E2EAFF"/>
    <path d="M396.519 272.727C399.729 272.727 402.332 270.125 402.332 266.915C402.332 263.705 399.729 261.103 396.519 261.103C393.309 261.103 390.706 263.705 390.706 266.915C390.706 270.125 393.309 272.727 396.519 272.727Z" fill="#E2EAFF"/>
    <path d="M464 267.287H443.469C443.263 267.287 443.096 267.12 443.096 266.915C443.096 266.711 443.263 266.542 443.469 266.542H463.627V131.776C463.627 131.57 463.794 131.404 463.998 131.404C464.203 131.404 464.37 131.572 464.37 131.776V266.915C464.37 267.121 464.203 267.287 463.998 267.287H464Z" fill="black"/>
    <path d="M354.11 267.162H322.327C322.121 267.162 321.955 266.995 321.955 266.789C321.955 266.583 322.122 266.417 322.327 266.417H354.11C354.317 266.417 354.482 266.584 354.482 266.789C354.482 266.993 354.315 267.162 354.11 267.162Z" fill="black"/>
    <path d="M377.227 267.162H360.687C360.481 267.162 360.315 266.995 360.315 266.789C360.315 266.583 360.483 266.417 360.687 266.417H377.227C377.433 266.417 377.599 266.584 377.599 266.789C377.599 266.993 377.432 267.162 377.227 267.162Z" fill="black"/>
    <path d="M339.975 278.536H300.748C300.542 278.536 300.377 278.369 300.377 278.164C300.377 277.96 300.544 277.793 300.748 277.793H339.975C340.181 277.793 340.348 277.96 340.348 278.164C340.348 278.369 340.181 278.536 339.975 278.536Z" fill="black"/>
    <path d="M377.227 278.536H346.649C346.443 278.536 346.277 278.369 346.277 278.164C346.277 277.96 346.445 277.793 346.649 277.793H377.227C377.433 277.793 377.598 277.96 377.598 278.164C377.598 278.369 377.431 278.536 377.227 278.536Z" fill="black"/>
    </g>
    <defs>
    <clipPath id="clip0_366_1216">
    <rect width="463.994" height="309" fill="white" transform="translate(0.583984)"/>
    </clipPath>
    </defs>
    </svg>
    